<?xml version="1.0" encoding="utf-8"?>
<!-- Generator: Adobe Illustrator 25.0.1, SVG Export Plug-In . SVG Version: 6.00 Build 0)  -->
<svg version="1.1" id="Layer_1" xmlns="http://www.w3.org/2000/svg" xmlns:xlink="http://www.w3.org/1999/xlink" x="0px" y="0px"
	 viewBox="0 0 250.1 278.1" style="enable-background:new 0 0 250.1 278.1;" xml:space="preserve">
<style type="text/css">
	.st0{fill:#62AAAC;}
	.st1{fill:#69ACAE;}
	.st2{fill:#6AACAF;}
	.st3{fill:#69ACAF;}
	.st4{fill:#68ABAE;}
	.st5{fill:#6AACAE;}
	.st6{fill:#66ABAE;}
	.st7{fill:#66ACAE;}
	.st8{fill:#63ABAD;}
</style>
<path class="st0" d="M237.3,218.3c-1.9-15.1-14.7-29.4-29.7-32.8c-4.3-1-5.4-2.8-5.4-7.1c0.2-49.6,0.1-99.2,0.1-148.8
	c0-8.6-4.6-13.9-13.2-15.2c-2.3-0.3-4.6-0.5-6.9-0.5c-49.6,0-99.2,0-148.8,0c-1.2,0-2.3,0-3.5,0c-12.1,0.7-17.4,6.2-17.4,18.3
	c0,32.3,0,64.6,0,96.9c0,32.1,0,64.3,0,96.4c0,13.7,5.2,18.9,19.1,18.9c41.8,0,83.6,0,125.3-0.1c3.7,0,6.3,0.7,8.8,4
	c12.6,17,35,19.8,51.4,10.8C231.5,251.3,239.4,235.3,237.3,218.3z M157.8,229c0.7,4.9-0.9,5.6-5.1,5.6c-40.5-0.1-80.9-0.1-121.4-0.1
	c-7.2,0-8.6-1.4-8.6-8.9c0-32.1,0-64.3,0-96.4c0-31.8,0-63.6,0-95.4c0-8.5,0.8-9.3,9.5-9.3c50.3,0,100.6,0,150.8,0
	c9,0,9.2,0.2,9.2,9.3c0,48.5,0,96.9,0.1,145.4c0,3.9-1.2,5.5-4.9,6.4C168.3,190.2,155,209.7,157.8,229z M197.5,254.2
	c-19.5-0.2-29.7-16.5-29.8-29.9c-0.2-17.1,15.5-30.1,30.2-30.1c14.7,0,31.2,14.9,29.3,30.2C228.5,238.1,215.9,254.4,197.5,254.2z"/>
<path class="st1" d="M97.4,189.2c0.1,3.4-1.8,5.1-4.8,5.1c-3,0-5.1-2.1-5.1-5.1c0-3,2-5.1,5-5.1C95.6,184.1,97.3,186.1,97.4,189.2z"
	/>
<path class="st2" d="M67.4,174.6c0,3.1-1.9,4.7-4.6,4.7c-3.1-0.1-5.5-1.7-5.3-5.2c0.2-3.1,2.4-4.9,5.3-4.8
	C65.8,169.4,67.5,171.4,67.4,174.6z"/>
<path class="st3" d="M127.5,173.9c0,3.9-2,5.5-5,5.4c-3-0.1-5.1-1.8-5-5c0.1-3.1,2-5,5.1-5C125.6,169.3,127.4,171.2,127.5,173.9z"/>
<path class="st4" d="M127.4,189.8c-0.3,2.8-2.1,4.7-5.2,4.5c-2.8-0.2-5.1-2-4.8-5.3c0.3-3,2.1-5.1,5.2-4.9
	C125.6,184.3,127.5,186.2,127.4,189.8z"/>
<path class="st5" d="M157.5,174.5c-0.2,3.3-2,5-5.1,4.8c-3.1-0.1-5-2.1-4.8-5.2c0.1-3,2-4.8,5.3-4.7
	C156.1,169.5,157.4,171.4,157.5,174.5z"/>
<path class="st6" d="M112.5,188.3c0,4.4-2,6.1-5,6c-2.7,0-4.8-1.7-4.8-4.7c0-3.1,1.4-5.7,4.9-5.5
	C110.6,184.3,112.5,186.2,112.5,188.3z"/>
<path class="st6" d="M112.5,175.6c-0.1,2.4-2.2,3.9-5.2,3.7c-2.9-0.1-4.6-2-4.5-5c0.1-3.1,1.9-5.2,5-5
	C110.7,169.5,112.6,171.3,112.5,175.6z"/>
<path class="st2" d="M93.3,169.5c2.3,0.1,4,1.6,4.1,4.9c0,3.3-1.9,4.9-4.9,4.9c-3.1,0-5-2-5-5C87.5,171.3,89.2,169.4,93.3,169.5z"/>
<path class="st7" d="M72.8,189c0.1-2.9,1.6-5.1,4.8-4.9c2.9,0.1,5.1,2.1,5.1,5.1c0.1,3-2.1,5-5,5.1C74.7,194.4,72.9,192.4,72.8,189z
	"/>
<path class="st7" d="M82.5,174.4c0,3.4-2.1,4.9-5.1,4.8c-2.8-0.1-4.7-1.9-4.6-4.8c0-3,1.4-5.1,4.9-5
	C80.9,169.5,82.5,171.2,82.5,174.4z"/>
<path class="st6" d="M142.4,190.3c0,2.2-2,4-4.9,4c-2.8,0-4.6-2-4.7-4.9c-0.1-3.1,1.6-5.3,4.6-5.3
	C140.3,184.2,142.3,186,142.4,190.3z"/>
<path class="st6" d="M132.8,174.3c0.2-2.6,1-4.7,4.3-4.8c3.1-0.1,5.1,1.2,5.3,4.5c0.2,3.1-1.5,5.2-4.5,5.4
	C134.7,179.5,133,177.5,132.8,174.3z"/>
<path class="st8" d="M219,217c-0.6,0.7-1.3,1.4-2,2.1c-6.9,6.9-13.9,13.8-20.8,20.9c-1.8,1.9-3.2,2.5-5.2,0.3
	c-3.6-3.9-7.4-7.6-11.3-11.3c-2-1.9-1.5-3.2,0.2-4.9c1.7-1.6,3-1.8,4.6,0c1.8,2,3.9,3.7,5.6,5.7c2,2.5,3.6,2.2,5.6,0.1
	c5.3-5.5,10.8-10.9,16.2-16.2c0.9-0.9,1.7-2.4,3.3-1.3C216.8,213.5,218.4,214.8,219,217z"/>
<path class="st0" d="M154.1,117.5c-5.6-5.2-10.8-10.9-16.3-16.1c-3-2.8-4-4.8,0.7-6.5c4.1-1.5,4.8-4.4,2.4-7.9
	c-3.1-4.5-3.2-8.8-0.2-13.4c2.4-3.5,1.2-6.1-2.5-7.4c-5.3-1.7-7.7-5.3-7.8-10.6c-0.1-4.5-2.8-6.1-6.7-4.9c-5.7,1.8-9.5-0.6-13.1-4.5
	c-2.1-2.3-4.4-2.5-6.4-0.1c-3.8,4.4-8.1,6.9-12.9,4.6c-5-0.8-6.9,1.2-7.1,4.7c-0.2,5.4-2.4,9-7.7,10.7c-3.9,1.3-4.6,4.4-2.5,7.6
	c2.9,4.5,2.6,8.7,0,13c-2.2,3.7-1.3,6.5,2.6,8c4.8,1.8,3.7,3.7,0.8,6.5c-5.6,5.3-10.8,10.8-16.3,16.2c-2.4,2.3-3.5,4.4,1,5.2
	c6.9,1.1,10.8,5,12,11.9c0.7,3.9,2.5,3.7,4.9,1.2c6.4-6.5,13-12.9,19.4-19.5c2.1-2.1,3.8-3.7,6.6-1.2c1.5,1.4,3.5,1.5,5,0
	c2.8-2.8,4.6-1,6.6,1.1c6.5,6.7,13.1,13.2,19.6,20c2.4,2.5,3.8,2.1,4.8-1c0.4-1.4,1-2.8,1.3-4.3c0.8-3.6,2.7-5.9,6.4-6.7
	c1.3-0.3,2.5-0.9,3.8-1.2C156.4,122.1,157.8,120.9,154.1,117.5z M87.2,115.2c-1.2,1.4-2.7,2.5-3.9,3.9c-2.2,2.5-3.6,2.1-6.2-0.3
	c-3.3-3.1-0.1-3.9,1.1-5.3c1.6-1.9,3.3-3.7,5.6-4.7c2,0.8,4.5,1.2,5.7,2.7C90.7,112.9,88.2,114,87.2,115.2z M113.4,99.8
	c-3.9,5-7.9,5.5-12,0.4c-6.7,1.8-10-1.1-10.5-7.8c0-0.4-0.6-0.8-1.1-1c-5.2-1.9-5.4-5-2.6-9.2c1.4-2,0.1-3.9-0.9-5.5
	c-1.9-3-1.5-5.6,2-6.7c3.1-1,4.2-3.1,4.3-6c0.2-3.3,1.8-4.4,3.6-3.8c3.9,0.8,6.2,0.3,7.9-1.9c2.1-2.7,4.3-2.8,6.4,0.1
	c1.9,2.6,4.3,3.2,7.4,2.4c2.5-0.7,4.6-0.2,4.5,3.3c0,1.4,0.5,3.7,1.4,4.1c6.2,2.7,4.2,7.5,4.9,12.5c0.9,5.9-0.5,7.7-4,12
	C121.3,96.9,120.4,102.1,113.4,99.8z M136.3,120.7c-0.7,2-2.2,0.8-3.1-0.1c-3.1-2.9-6.2-5.8-8.7-9.9c2.6-0.7,5.5-2.6,6.9-1.8
	c3.1,1.8,5.8,4.6,7.8,7.5C141,118.9,136.9,118.8,136.3,120.7z"/>
</svg>
