<svg id="Layer_1" data-name="Layer 1" xmlns="http://www.w3.org/2000/svg" viewBox="0 0 343.35 293"><defs><style>.cls-1{fill:#158285;}.cls-2{fill:#ec9b3f;}</style></defs><g id="Qiwa-Logo-10032019-01"><g id="Layer_3_copy" data-name="Layer 3 copy"><path id="Path" class="cls-1" d="M273.82,19.45V39.51h21.11c5.95-.24,9.39-4,9.39-10.48V9H283.2c-6,.27-9.38,4.07-9.38,10.45"/><path id="Path-2" data-name="Path" class="cls-1" d="M236.35,19.45V39.51h21.11c6-.24,9.39-4,9.39-10.48V9H245.73c-6,.27-9.38,4.07-9.38,10.45"/><path id="Shape" class="cls-1" d="M60.71,45.39,55.35,40l-.72.08q-.36,0-.72,0A16.64,16.64,0,0,1,47.46,39a12.93,12.93,0,0,1-4.71-3.28,14,14,0,0,1-2.88-5,20.39,20.39,0,0,1-1-6.45,20.23,20.23,0,0,1,1-6.46,13.6,13.6,0,0,1,2.88-5,12.73,12.73,0,0,1,4.71-3.19,17.23,17.23,0,0,1,6.45-1.13,16.94,16.94,0,0,1,6.42,1.14A12.85,12.85,0,0,1,65,12.79a13.79,13.79,0,0,1,2.89,5,19.76,19.76,0,0,1,1,6.43,22.6,22.6,0,0,1-.42,4.41,15.52,15.52,0,0,1-1.34,3.94,13.19,13.19,0,0,1-2.39,3.34,14.1,14.1,0,0,1-3.57,2.62l6.92,6.88Zm-6.8-32.13a7.68,7.68,0,0,0-3.95,1,8.25,8.25,0,0,0-2.68,2.54,10.88,10.88,0,0,0-1.51,3.55,17.42,17.42,0,0,0-.47,4,16.92,16.92,0,0,0,.48,4,11.06,11.06,0,0,0,1.51,3.52A7.91,7.91,0,0,0,50,34.35a7.68,7.68,0,0,0,3.95.95,7.48,7.48,0,0,0,6.66-3.5,11.17,11.17,0,0,0,1.48-3.57,17.67,17.67,0,0,0,.46-4,17.29,17.29,0,0,0-.47-4,10.51,10.51,0,0,0-1.5-3.5,7.55,7.55,0,0,0-6.63-3.44"/><rect id="Rectangle" class="cls-1" x="75.66" y="8.96" width="6.15" height="30.64"/><polygon id="Path-3" data-name="Path" class="cls-1" points="86.93 8.96 93.4 8.96 99.1 33.45 99.19 33.45 104.42 8.96 112.75 8.96 118.15 33.45 118.24 33.45 123.98 8.96 129.96 8.96 121.96 39.6 114.06 39.6 108.53 15.11 108.44 15.11 103 39.6 95.05 39.6 86.93 8.96"/><path id="Shape-2" data-name="Shape" class="cls-1" d="M142.75,9h6.94l12,30.64h-6.79l-2.64-7H139.85l-2.68,7h-6.36Zm3.38,6.15H146l-4.43,12.64h9Z"/><path id="Path-4" data-name="Path" class="cls-1" d="M205.77,203.94l0,11.49s-.47,11.87-2.47,16.89a34,34,0,0,1-55.16,12,16.39,16.39,0,0,0-1.91-1.57,8.78,8.78,0,0,0-2.07-1.08,4.18,4.18,0,0,0-2.85-.11l-.51.27a21.93,21.93,0,0,0-2.87,2.1,36.63,36.63,0,0,0-4.74,4.68,52.55,52.55,0,0,0-5.77,8.26c-.18.33-.37.66-.54,1-1.44,4.39.83,8.44,2.33,10.48l.35.57a29,29,0,0,0,2.5,2.39c.3.26.55.49.72.65,20.65,17.26,49,12.68,60.25,9.9a44.34,44.34,0,0,0,5.1-1.44l.45-.15c1.38-.5,2.49-.95,3.5-1.42l.59-.22c.12-.06.41-.2.91-.48l.23-.12a58.57,58.57,0,0,0,23.46-20.21c5.95-8.73,9.1-19.9,9.1-32.32V204.25a70.13,70.13,0,0,1-15.55-11.62A70.93,70.93,0,0,1,205.77,203.94Z"/><g id="Group"><path id="Path-5" data-name="Path" class="cls-2" d="M294.3,54.67l-.28-.11a63.24,63.24,0,0,0-8.54-2.69l-1.06-.25c-1.38-.31-2.77-.58-4.18-.8l-.3,0c-1.33-.2-2.67-.34-4-.46l-1.14-.09c-1.44-.1-2.89-.16-4.36-.16-1.63,0-3.24.08-4.84.2l-1,.08c-1.53.14-3.05.33-4.54.57l-1,.18c-1.45.26-2.89.56-4.31.91l-.39.09c-1.56.4-3.1.88-4.61,1.39l-.67.23q-2.38.84-4.67,1.85l0,0a65,65,0,0,0-30.7,28.3l0,0-.29.55-.32.63c-.28.54-.56,1.07-.83,1.61a.8.8,0,0,0-.08.16c-.15.32-.29.65-.44,1L211,89.32c-.06.15-.13.29-.2.44a1.08,1.08,0,0,0-.08.19c-.22.52-.41,1.06-.62,1.59s-.42,1-.61,1.58c-.39,1.08-.75,2.18-1.07,3.29,0,0,0,.11,0,.16-.55,1.88-1,3.8-1.41,5.75l-.06.32c-.36,1.91-.65,3.84-.84,5.8,0,.11,0,.22,0,.33-.18,2-.28,3.93-.29,5.94v28c0,1.08-.06,2.15-.16,3.21,0,.46-.12.91-.18,1.37s-.16,1.16-.26,1.73-.24,1.12-.37,1.68-.22.89-.34,1.32c-.17.6-.36,1.19-.56,1.77q-.2.57-.42,1.14c-.23.59-.47,1.18-.73,1.77-.16.36-.34.72-.52,1.07-.28.57-.56,1.13-.87,1.68-.21.37-.43.72-.66,1.08-.32.52-.63,1-1,1.54s-.55.74-.83,1.11-.68.92-1,1.36l-.37.41c-.66.76-1.34,1.5-2.06,2.19-.26.25-.54.49-.81.73-.6.55-1.21,1.08-1.84,1.58-.34.27-.68.52-1,.77-.6.44-1.21.86-1.84,1.25l-1.16.71c-.63.36-1.26.7-1.91,1-.41.2-.82.41-1.24.6-.66.3-1.34.56-2,.81-.43.16-.85.33-1.29.47-.69.23-1.39.41-2.1.59-.45.12-.89.25-1.35.35-.69.15-1.4.24-2.1.35-.49.07-1,.17-1.46.22-.66.07-1.32.08-2,.11s-1,.08-1.57.08c-.32,0-.62,0-.94,0-.73,0-1.46,0-2.18-.11-.52-.05-1-.13-1.55-.2s-1-.14-1.55-.24-1.1-.23-1.64-.36l-1.37-.35c-.55-.16-1.1-.32-1.64-.5s-.85-.3-1.27-.47-1.08-.41-1.61-.65-.8-.38-1.19-.58-1.05-.5-1.56-.79c-.35-.19-.68-.42-1-.62a34.26,34.26,0,0,1-12.76-13.62c-.32,1.38-.66,2.78-1.08,4.19a70.74,70.74,0,0,1-14.2,26.07,64.72,64.72,0,0,0,21.66,14.28l.28.11a63.56,63.56,0,0,0,8.53,2.69l1.06.25c1.38.31,2.77.58,4.18.8l.3,0c1.33.2,2.67.34,4,.46l1.14.09c1.44.1,2.89.16,4.36.16,1.63,0,3.24-.08,4.84-.2l1-.08c1.53-.14,3-.33,4.54-.57l1-.18c1.45-.26,2.88-.56,4.3-.91l.4-.09c1.56-.4,3.09-.88,4.61-1.39l.68-.23c1.58-.56,3.14-1.17,4.67-1.85l0,0A65,65,0,0,0,221,184.38l0,0c.33-.39.65-.81,1-1.21l.54-.67c.58-.74,1.14-1.49,1.69-2.26l.3-.42a64.11,64.11,0,0,0,9.15-18.8s0-.11,0-.16c.55-1.88,1-3.8,1.41-5.75l.06-.32c.36-1.91.65-3.84.84-5.8,0-.11,0-.22,0-.33.18-2,.29-4,.29-6v-28c0-1.08.06-2.15.16-3.21,0-.46.12-.91.18-1.37s.16-1.16.26-1.73.24-1.12.37-1.68.22-.89.34-1.32c.17-.6.36-1.19.56-1.77q.2-.57.42-1.14c.23-.59.47-1.18.73-1.77.16-.36.34-.72.52-1.07.28-.57.56-1.13.88-1.68.21-.37.43-.72.65-1.07.32-.52.63-1,1-1.54s.55-.74.82-1.1.68-.93,1.05-1.37c.12-.14.25-.26.36-.4.66-.76,1.35-1.5,2.06-2.2.26-.25.54-.49.8-.73.6-.55,1.21-1.08,1.85-1.58.33-.26.68-.52,1-.77.6-.44,1.21-.86,1.84-1.26l1.16-.71c.63-.36,1.26-.7,1.91-1,.41-.2.82-.41,1.24-.6.66-.3,1.34-.56,2-.81.43-.16.85-.33,1.29-.47.69-.23,1.39-.41,2.1-.59.45-.12.89-.25,1.35-.35.69-.15,1.4-.24,2.1-.35.49-.07,1-.17,1.46-.22.66-.07,1.32-.08,2-.11s1-.08,1.57-.08c.32,0,.62,0,.94,0,.73,0,1.46,0,2.18.11.52,0,1,.13,1.55.2s1,.14,1.55.24,1.1.23,1.64.35l1.37.35c.55.16,1.1.32,1.64.5s.85.3,1.27.47,1.08.41,1.61.65.8.38,1.2.58,1,.5,1.55.78.7.43,1.06.64c1,.59,1.91,1.22,2.82,1.9a34,34,0,0,1,13.7,27.25v28c0,1.08-.06,2.15-.16,3.21,0,.46-.12.91-.18,1.37s-.16,1.16-.26,1.73-.24,1.12-.37,1.68-.22.89-.34,1.32c-.17.6-.36,1.19-.56,1.77q-.19.57-.42,1.14c-.23.59-.47,1.18-.73,1.77-.16.36-.34.72-.52,1.07-.28.57-.56,1.13-.87,1.68-.21.37-.43.72-.66,1.08-.32.52-.63,1-1,1.54s-.55.74-.83,1.11-.68.92-1,1.36l-.37.41c-.66.76-1.34,1.5-2.06,2.19-.26.25-.54.49-.81.73-.6.55-1.21,1.08-1.84,1.58-.34.27-.68.52-1,.77-.6.44-1.21.86-1.84,1.25l-1.16.71c-.63.36-1.26.7-1.91,1-.41.2-.82.41-1.24.6-.66.3-1.34.56-2,.81-.43.16-.85.33-1.29.47-.69.23-1.39.41-2.1.59-.45.12-.89.25-1.35.35-.69.15-1.4.24-2.1.35-.49.07-1,.17-1.46.22-.66.07-1.32.08-2,.11s-1,.08-1.57.08c-.32,0-.62,0-.94,0-.73,0-1.46,0-2.18-.11-.52-.05-1-.13-1.55-.2s-1-.14-1.55-.24-1.1-.23-1.64-.36l-1.37-.35c-.55-.16-1.1-.32-1.64-.5s-.85-.3-1.27-.47-1.08-.41-1.61-.65-.8-.38-1.19-.58-1.05-.5-1.56-.79c-.35-.19-.68-.42-1-.62a34.33,34.33,0,0,1-12.76-13.6c-.31,1.37-.66,2.77-1.07,4.17a70.64,70.64,0,0,1-14.22,26.09,64.82,64.82,0,0,0,21.68,14.25l.28.11a63.56,63.56,0,0,0,8.53,2.69l1.06.25c1.38.31,2.77.58,4.18.8l.3,0c1.33.2,2.67.34,4,.46l1.14.09c1.44.1,2.89.16,4.36.16,1.63,0,3.24-.08,4.84-.2l1-.08c1.53-.14,3-.33,4.54-.57l1-.18c1.45-.26,2.88-.56,4.3-.91l.4-.09c1.56-.4,3.09-.88,4.61-1.39l.68-.23c1.58-.56,3.14-1.17,4.67-1.85l.05,0A65,65,0,0,0,332.4,161c0-.05,0-.11.05-.16.55-1.88,1-3.8,1.41-5.75l.06-.32c.36-1.91.65-3.84.84-5.8,0-.11,0-.22,0-.33.18-2,.29-4,.29-6v-28A64.73,64.73,0,0,0,294.3,54.67Z"/><path id="Path-6" data-name="Path" class="cls-2" d="M135,160.9c.55-1.88,1-3.8,1.41-5.75l.06-.32c.36-1.91.65-3.84.84-5.8,0-.11,0-.22,0-.33.18-2,.29-4,.29-6v-28h.15A34.16,34.16,0,0,1,162.61,82l.32-.08c.94-.26,1.89-.47,2.85-.64l.91-.14.67-.11,1.21-.14c.52,0,1-.06,1.57-.08s1-.08,1.57-.08c.32,0,.62,0,.94,0,.73,0,1.46,0,2.18.11.52.05,1,.13,1.55.2s1,.14,1.55.24,1.1.23,1.64.35l1.37.35c.55.16,1.1.32,1.64.5s.85.3,1.27.47,1.08.41,1.61.65.8.38,1.2.58,1,.5,1.55.78c.36.2.7.43,1.06.64,1,.59,1.91,1.22,2.82,1.9A34.49,34.49,0,0,1,202,99.19c.13-.58.27-1.17.42-1.76.2-.8.41-1.59.65-2.4.36-1.23.76-2.45,1.19-3.65.24-.68.51-1.34.77-2,.2-.51.38-1,.59-1.53.37-.9.78-1.78,1.19-2.66.12-.25.22-.52.35-.77.49-1,1-2,1.56-3,.05-.09.09-.19.15-.28.59-1.08,1.21-2.14,1.85-3.19,0,0,0,0,0,0a69.73,69.73,0,0,1,6.57-9,65.47,65.47,0,0,0-8.84-7.34l0-.06a63.78,63.78,0,0,0-36.63-11.46c-2,0-4,.1-5.95.28h-.05l-.44,0-1.81.19c-.77.1-1.54.2-2.3.33l-1,.18c-1.45.26-2.89.56-4.31.91l-.39.09c-1.56.4-3.1.88-4.61,1.39l-.67.23q-2.39.84-4.67,1.85l0,0A64.93,64.93,0,0,0,109.72,96.4s0,.11,0,.16c-.55,1.88-1,3.8-1.41,5.75l-.06.32c-.36,1.91-.65,3.84-.84,5.8,0,.11,0,.22,0,.33-.18,2-.29,4-.29,6v28h0c0,1.08-.06,2.14-.16,3.2,0,.46-.12.91-.18,1.37s-.16,1.16-.26,1.73-.24,1.12-.37,1.68-.22.89-.34,1.32c-.17.6-.36,1.19-.56,1.77q-.19.57-.42,1.14c-.23.59-.47,1.18-.73,1.77-.16.36-.34.72-.52,1.07-.28.57-.56,1.13-.87,1.68-.21.37-.43.72-.66,1.08-.32.52-.63,1-1,1.54s-.55.74-.83,1.11-.68.92-1,1.36l-.37.41c-.66.76-1.34,1.5-2.06,2.19-.26.25-.54.49-.81.73-.6.55-1.21,1.08-1.84,1.58-.34.27-.68.52-1,.77-.6.44-1.21.86-1.84,1.25l-1.16.71c-.63.36-1.26.7-1.91,1-.41.2-.82.41-1.24.6-.66.3-1.34.56-2,.81-.43.16-.85.33-1.29.47-.69.23-1.39.41-2.1.59-.45.12-.89.25-1.35.35-.69.15-1.4.24-2.1.35-.49.07-1,.17-1.46.22-.66.07-1.32.08-2,.11s-1,.08-1.57.08c-.32,0-.62,0-.94,0-.56,0-1.11,0-1.66-.08l-.61-.05c-.49,0-1-.12-1.46-.19l-1.08-.17-.78-.14-.66-.14-1-.24-.27-.07a34.13,34.13,0,0,1-25.43-33V114.75a33.74,33.74,0,0,1,.22-3.78l.14-1.71v-.07h0l.16-2.34a41.59,41.59,0,0,1,3.71-13,38.89,38.89,0,0,1,5.24-8.29,37.55,37.55,0,0,1,6.89-6.52c.3-.22.57-.44.83-.66l.17-.15a7,7,0,0,0,1.66-1.89l.1-.18a3.78,3.78,0,0,1,.22-.33,4.44,4.44,0,0,0,.55-1.56l0-.35a12.79,12.79,0,0,0-1.67-5.37l-.1-.19a32,32,0,0,0-7.41-8.47L49,59.36h0l-.21-.17,0,0a10.22,10.22,0,0,0-.92-.6c-4.36-2.65-8.42-2.66-12.83-.08a28.64,28.64,0,0,0-6.59,5.61c-7.74,7.84-17.29,21.53-19.55,43l-.07.65,0,.35a66.18,66.18,0,0,0-.35,6.68v3H8.27v25a64.78,64.78,0,0,0,40.78,60.09l.28.11a63.56,63.56,0,0,0,8.53,2.69l1.06.25c1.38.31,2.77.58,4.18.8l.3,0c.84.13,1.7.22,2.55.31l1.21.12.25,0,1.14.09h.24c.55,0,1.09.07,1.65.09s1.38.05,2.07.05a3.22,3.22,0,0,1,.44,0c1.63,0,3.24-.08,4.84-.2l1-.08c1.53-.14,3-.33,4.54-.57.34-.05.67-.12,1-.18,1.45-.26,2.88-.56,4.3-.91l.4-.09c1.56-.4,3.09-.88,4.61-1.39l.68-.23c1.58-.56,3.14-1.17,4.67-1.85l0,0A65,65,0,0,0,135,161.06C135,161,135,161,135,160.9Z"/></g></g></g></svg>