<?xml version="1.0" encoding="utf-8"?>
<!-- Generator: Adobe Illustrator 25.0.1, SVG Export Plug-In . SVG Version: 6.00 Build 0)  -->
<svg version="1.1" id="Layer_1" xmlns="http://www.w3.org/2000/svg" xmlns:xlink="http://www.w3.org/1999/xlink" x="0px" y="0px"
	 viewBox="0 0 573.3 293" style="enable-background:new 0 0 573.3 293;" xml:space="preserve">
<style type="text/css">
	.st0{fill:#158285;}
	.st1{fill:#EC9B3F;}
</style>
<g id="AR-Qiwa-logo-beta-color">
	<g id="Qiwa-Logo-10032019-01" transform="translate(214.000000, 0.000000)">
		<g id="Layer_3_copy">
			<path id="Path" class="st0" d="M281.5,19.5v20.1h21.1c5.9-0.2,9.4-4,9.4-10.5v-20h-21.1C284.9,9.3,281.5,13.1,281.5,19.5"/>
			<path id="Path_1_" class="st0" d="M244,19.5v20.1h21.1c6-0.2,9.4-4,9.4-10.5v-20h-21.1C247.4,9.3,244,13.1,244,19.5"/>
			<path id="Shape" class="st0" d="M68.4,45.4L63,40.1c-0.2,0-0.5,0-0.7,0.1c-0.2,0-0.5,0-0.7,0c-2.4,0-4.6-0.4-6.5-1.2
				c-1.9-0.8-3.4-1.9-4.7-3.3c-1.3-1.4-2.2-3.1-2.9-5s-1-4.1-1-6.5c0-2.4,0.3-4.5,1-6.5c0.7-1.9,1.6-3.6,2.9-5
				c1.3-1.4,2.8-2.4,4.7-3.2s4-1.1,6.5-1.1c2.4,0,4.5,0.4,6.4,1.1c1.9,0.8,3.4,1.8,4.7,3.2c1.3,1.4,2.2,3,2.9,5c0.7,1.9,1,4.1,1,6.4
				c0,1.5-0.1,3-0.4,4.4s-0.7,2.7-1.3,3.9c-0.6,1.2-1.4,2.3-2.4,3.3c-1,1-2.2,1.9-3.6,2.6l6.9,6.9L68.4,45.4L68.4,45.4z M61.6,13.3
				c-1.5,0-2.9,0.3-4,1c-1.1,0.6-2,1.5-2.7,2.5c-0.7,1-1.2,2.2-1.5,3.5c-0.3,1.3-0.5,2.7-0.5,4c0,1.4,0.2,2.7,0.5,4
				c0.3,1.3,0.8,2.5,1.5,3.5c0.7,1,1.6,1.9,2.7,2.5c1.1,0.6,2.4,0.9,4,0.9c1.6,0,2.9-0.3,4-1c1.1-0.6,2-1.5,2.7-2.5s1.2-2.2,1.5-3.6
				c0.3-1.3,0.5-2.7,0.5-4s-0.2-2.7-0.5-4c-0.3-1.3-0.8-2.5-1.5-3.5c-0.7-1-1.6-1.9-2.7-2.5C64.5,13.6,63.1,13.3,61.6,13.3"/>
			<rect id="Rectangle" x="83.3" y="9" class="st0" width="6.2" height="30.6"/>
			<polygon id="Path_2_" class="st0" points="94.6,9 101.1,9 106.8,33.5 106.9,33.5 112.1,9 120.4,9 125.8,33.5 125.9,33.5 131.7,9 
				137.6,9 129.6,39.7 121.7,39.7 116.2,15.2 116.1,15.2 110.7,39.7 102.7,39.7 			"/>
			<path id="Shape_1_" class="st0" d="M150.4,9h6.9l12,30.6h-6.8l-2.6-7h-12.4l-2.7,7h-6.4L150.4,9z M153.8,15.2L153.8,15.2
				l-4.5,12.6h9L153.8,15.2z"/>
			<path id="Path_3_" class="st0" d="M213.4,204l0,11.5c0,0-0.5,11.9-2.5,16.9c-1.4,3.4-3.2,6.5-5.6,9.3c-6.5,7.7-16,12.2-26.1,12.2
				c-8.8,0-17.1-3.4-23.5-9.5c-0.7-0.6-1.3-1.1-1.9-1.6c-0.7-0.5-1.4-0.9-2.1-1.1c-1.3-0.5-2.3-0.3-2.9-0.1c-0.1,0-0.3,0.1-0.5,0.3
				c-1,0.5-2,1.4-2.9,2.1c-1.7,1.4-3.2,2.9-4.7,4.7c-2.1,2.5-4.1,5.3-5.8,8.3c-0.2,0.3-0.4,0.7-0.5,1c-1.4,4.4,0.8,8.4,2.3,10.5
				l0.3,0.6c0.3,0.5,2,1.9,2.5,2.4c0.3,0.3,0.6,0.5,0.7,0.6c20.6,17.3,49,12.7,60.2,9.9c1.8-0.4,3.5-0.9,5.1-1.4l0.4-0.1
				c1.4-0.5,2.5-1,3.5-1.4l0.6-0.2c0.1-0.1,0.4-0.2,0.9-0.5l0.2-0.1c9.9-4.9,17.4-11.3,23.5-20.2c5.9-8.7,9.1-19.9,9.1-32.3v-21.2
				c-5.8-3.2-11-7.1-15.5-11.6C224,197.1,219,200.9,213.4,204z"/>
			<g id="Group" transform="translate(0.000000, 42.000000)">
				<path id="Path_4_" class="st1" d="M302,12.7c-0.1,0-0.2-0.1-0.3-0.1c-2.8-1.1-5.6-2-8.5-2.7c-0.4-0.1-0.7-0.2-1.1-0.2
					c-1.4-0.3-2.8-0.6-4.2-0.8c-0.1,0-0.2,0-0.3,0c-1.3-0.2-2.7-0.3-4-0.5c-0.4,0-0.8-0.1-1.1-0.1c-1.4-0.1-2.9-0.2-4.4-0.2
					c-1.6,0-3.2,0.1-4.8,0.2c-0.3,0-0.7,0.1-1,0.1c-1.5,0.1-3.1,0.3-4.5,0.6c-0.3,0.1-0.7,0.1-1,0.2c-1.4,0.3-2.9,0.6-4.3,0.9
					c-0.1,0-0.3,0.1-0.4,0.1c-1.6,0.4-3.1,0.9-4.6,1.4c-0.2,0.1-0.5,0.2-0.7,0.2c-1.6,0.6-3.2,1.2-4.7,1.8c0,0,0,0,0,0
					c-13.1,5.8-23.9,15.8-30.7,28.3c0,0,0,0,0,0c-0.1,0.2-0.2,0.4-0.3,0.5c-0.1,0.2-0.2,0.4-0.3,0.6c-0.3,0.5-0.6,1.1-0.8,1.6
					c0,0-0.1,0.1-0.1,0.2c-0.1,0.3-0.3,0.7-0.4,1c-0.2,0.5-0.4,1-0.7,1.5c-0.1,0.2-0.1,0.3-0.2,0.4c0,0.1-0.1,0.1-0.1,0.2
					c-0.2,0.5-0.4,1.1-0.6,1.6c-0.2,0.5-0.4,1-0.6,1.6c-0.4,1.1-0.8,2.2-1.1,3.3c0,0,0,0.1,0,0.2c-0.6,1.9-1,3.8-1.4,5.8
					c0,0.1,0,0.2-0.1,0.3c-0.4,1.9-0.7,3.8-0.8,5.8c0,0.1,0,0.2,0,0.3c-0.2,2-0.3,3.9-0.3,5.9c0,0,0,0,0,0v28c0,1.1-0.1,2.2-0.2,3.2
					c0,0.5-0.1,0.9-0.2,1.4c-0.1,0.6-0.2,1.2-0.3,1.7c-0.1,0.6-0.2,1.1-0.4,1.7c-0.1,0.4-0.2,0.9-0.3,1.3c-0.2,0.6-0.4,1.2-0.6,1.8
					c-0.1,0.4-0.3,0.8-0.4,1.1c-0.2,0.6-0.5,1.2-0.7,1.8c-0.2,0.4-0.3,0.7-0.5,1.1c-0.3,0.6-0.6,1.1-0.9,1.7
					c-0.2,0.4-0.4,0.7-0.7,1.1c-0.3,0.5-0.6,1-1,1.5c-0.3,0.4-0.6,0.7-0.8,1.1c-0.3,0.5-0.7,0.9-1,1.4c-0.1,0.1-0.2,0.3-0.4,0.4
					c-0.7,0.8-1.3,1.5-2.1,2.2c-0.3,0.2-0.5,0.5-0.8,0.7c-0.6,0.5-1.2,1.1-1.8,1.6c-0.3,0.3-0.7,0.5-1,0.8c-0.6,0.4-1.2,0.9-1.8,1.2
					c-0.4,0.2-0.8,0.5-1.2,0.7c-0.6,0.4-1.3,0.7-1.9,1c-0.4,0.2-0.8,0.4-1.2,0.6c-0.7,0.3-1.3,0.6-2,0.8c-0.4,0.2-0.8,0.3-1.3,0.5
					c-0.7,0.2-1.4,0.4-2.1,0.6c-0.4,0.1-0.9,0.2-1.3,0.4c-0.7,0.1-1.4,0.2-2.1,0.4c-0.5,0.1-1,0.2-1.5,0.2c-0.7,0.1-1.3,0.1-2,0.1
					c-0.5,0-1,0.1-1.6,0.1c-0.3,0-0.6,0-0.9,0c-0.7,0-1.5,0-2.2-0.1c-0.5-0.1-1-0.1-1.6-0.2c-0.5-0.1-1-0.1-1.5-0.2
					c-0.6-0.1-1.1-0.2-1.6-0.4c-0.5-0.1-0.9-0.2-1.4-0.4c-0.6-0.2-1.1-0.3-1.6-0.5c-0.4-0.1-0.8-0.3-1.3-0.5
					c-0.5-0.2-1.1-0.4-1.6-0.7c-0.4-0.2-0.8-0.4-1.2-0.6c-0.5-0.3-1.1-0.5-1.6-0.8c-0.3-0.2-0.7-0.4-1-0.6c-1-0.6-1.9-1.2-2.9-1.9
					c-4.1-3.1-7.5-7.1-9.9-11.7c-0.3,1.4-0.7,2.8-1.1,4.2c-2.9,9.8-7.8,18.6-14.2,26.1c6.1,6.1,13.5,11,21.7,14.3
					c0.1,0,0.2,0.1,0.3,0.1c2.8,1.1,5.6,2,8.5,2.7c0.4,0.1,0.7,0.2,1.1,0.2c1.4,0.3,2.8,0.6,4.2,0.8c0.1,0,0.2,0,0.3,0
					c1.3,0.2,2.7,0.3,4,0.5c0.4,0,0.8,0.1,1.1,0.1c1.4,0.1,2.9,0.2,4.4,0.2c1.6,0,3.2-0.1,4.8-0.2c0.3,0,0.7-0.1,1-0.1
					c1.5-0.1,3-0.3,4.5-0.6c0.3-0.1,0.7-0.1,1-0.2c1.5-0.3,2.9-0.6,4.3-0.9c0.1,0,0.3-0.1,0.4-0.1c1.6-0.4,3.1-0.9,4.6-1.4
					c0.2-0.1,0.5-0.1,0.7-0.2c1.6-0.6,3.1-1.2,4.7-1.9c0,0,0,0,0.1,0c9-4,17-10,23.3-17.5c0,0,0,0,0,0c0.3-0.4,0.6-0.8,1-1.2
					c0.2-0.2,0.4-0.4,0.5-0.7c0.6-0.7,1.1-1.5,1.7-2.3c0.1-0.1,0.2-0.3,0.3-0.4c4-5.7,7.1-12,9.1-18.8c0,0,0-0.1,0.1-0.2
					c0.6-1.9,1-3.8,1.4-5.8c0-0.1,0-0.2,0.1-0.3c0.4-1.9,0.6-3.8,0.8-5.8c0-0.1,0-0.2,0-0.3c0.2-2,0.3-4,0.3-6c0,0,0,0,0,0V72.8
					c0-1.1,0.1-2.2,0.2-3.2c0-0.5,0.1-0.9,0.2-1.4c0.1-0.6,0.2-1.2,0.3-1.7c0.1-0.6,0.2-1.1,0.4-1.7c0.1-0.4,0.2-0.9,0.3-1.3
					c0.2-0.6,0.4-1.2,0.6-1.8c0.1-0.4,0.3-0.8,0.4-1.1c0.2-0.6,0.5-1.2,0.7-1.8c0.2-0.4,0.3-0.7,0.5-1.1c0.3-0.6,0.6-1.1,0.9-1.7
					c0.2-0.4,0.4-0.7,0.6-1.1c0.3-0.5,0.6-1,1-1.5c0.3-0.4,0.6-0.7,0.8-1.1c0.4-0.5,0.7-0.9,1.1-1.4c0.1-0.1,0.2-0.3,0.4-0.4
					c0.7-0.8,1.3-1.5,2.1-2.2c0.3-0.2,0.5-0.5,0.8-0.7c0.6-0.6,1.2-1.1,1.9-1.6c0.3-0.3,0.7-0.5,1-0.8c0.6-0.4,1.2-0.9,1.8-1.3
					c0.4-0.2,0.8-0.5,1.2-0.7c0.6-0.4,1.3-0.7,1.9-1c0.4-0.2,0.8-0.4,1.2-0.6c0.7-0.3,1.3-0.6,2-0.8c0.4-0.2,0.9-0.3,1.3-0.5
					c0.7-0.2,1.4-0.4,2.1-0.6c0.4-0.1,0.9-0.2,1.3-0.4c0.7-0.1,1.4-0.2,2.1-0.3c0.5-0.1,1-0.2,1.5-0.2c0.7-0.1,1.3-0.1,2-0.1
					c0.5,0,1-0.1,1.6-0.1c0.3,0,0.6,0,0.9,0c0.7,0,1.5,0,2.2,0.1c0.5,0.1,1,0.1,1.5,0.2c0.5,0.1,1,0.1,1.6,0.2
					c0.5,0.1,1.1,0.2,1.6,0.3c0.5,0.1,0.9,0.2,1.4,0.4c0.5,0.2,1.1,0.3,1.6,0.5c0.4,0.1,0.9,0.3,1.3,0.5c0.5,0.2,1.1,0.4,1.6,0.6
					c0.4,0.2,0.8,0.4,1.2,0.6c0.5,0.2,1,0.5,1.6,0.8c0.4,0.2,0.7,0.4,1.1,0.6c1,0.6,1.9,1.2,2.8,1.9c8.3,6.2,13.7,16.1,13.7,27.2v28
					c0,1.1-0.1,2.2-0.2,3.2c0,0.5-0.1,0.9-0.2,1.4c-0.1,0.6-0.2,1.2-0.3,1.7c-0.1,0.6-0.2,1.1-0.4,1.7c-0.1,0.4-0.2,0.9-0.3,1.3
					c-0.2,0.6-0.4,1.2-0.6,1.8c-0.1,0.4-0.3,0.8-0.4,1.1c-0.2,0.6-0.5,1.2-0.7,1.8c-0.2,0.4-0.3,0.7-0.5,1.1
					c-0.3,0.6-0.6,1.1-0.9,1.7c-0.2,0.4-0.4,0.7-0.7,1.1c-0.3,0.5-0.6,1-1,1.5c-0.3,0.4-0.5,0.7-0.8,1.1c-0.3,0.5-0.7,0.9-1,1.4
					c-0.1,0.1-0.2,0.3-0.4,0.4c-0.7,0.8-1.3,1.5-2.1,2.2c-0.3,0.2-0.5,0.5-0.8,0.7c-0.6,0.5-1.2,1.1-1.8,1.6c-0.3,0.3-0.7,0.5-1,0.8
					c-0.6,0.4-1.2,0.9-1.8,1.2c-0.4,0.2-0.8,0.5-1.2,0.7c-0.6,0.4-1.3,0.7-1.9,1c-0.4,0.2-0.8,0.4-1.2,0.6c-0.7,0.3-1.3,0.6-2,0.8
					c-0.4,0.2-0.9,0.3-1.3,0.5c-0.7,0.2-1.4,0.4-2.1,0.6c-0.5,0.1-0.9,0.2-1.4,0.4c-0.7,0.1-1.4,0.2-2.1,0.4c-0.5,0.1-1,0.2-1.5,0.2
					c-0.7,0.1-1.3,0.1-2,0.1c-0.5,0-1,0.1-1.6,0.1c-0.3,0-0.6,0-0.9,0c-0.7,0-1.5,0-2.2-0.1c-0.5-0.1-1-0.1-1.5-0.2
					c-0.5-0.1-1-0.1-1.5-0.2c-0.6-0.1-1.1-0.2-1.6-0.4c-0.5-0.1-0.9-0.2-1.4-0.4c-0.6-0.2-1.1-0.3-1.6-0.5c-0.4-0.1-0.9-0.3-1.3-0.5
					c-0.5-0.2-1.1-0.4-1.6-0.7c-0.4-0.2-0.8-0.4-1.2-0.6c-0.5-0.3-1-0.5-1.6-0.8c-0.3-0.2-0.7-0.4-1-0.6c-1-0.6-2-1.2-2.9-1.9
					c-4.1-3.1-7.5-7.1-9.9-11.7c-0.3,1.4-0.7,2.8-1.1,4.2c-2.9,9.8-7.8,18.6-14.2,26.1c6.1,6.1,13.5,11,21.7,14.2
					c0.1,0,0.2,0.1,0.3,0.1c2.8,1.1,5.6,2,8.5,2.7c0.4,0.1,0.7,0.2,1.1,0.2c1.4,0.3,2.8,0.6,4.2,0.8c0.1,0,0.2,0,0.3,0
					c1.3,0.2,2.7,0.3,4,0.5c0.4,0,0.8,0.1,1.1,0.1c1.4,0.1,2.9,0.2,4.4,0.2c1.6,0,3.2-0.1,4.8-0.2c0.3,0,0.7-0.1,1-0.1
					c1.5-0.1,3-0.3,4.5-0.6c0.3-0.1,0.7-0.1,1-0.2c1.4-0.3,2.9-0.6,4.3-0.9c0.1,0,0.3-0.1,0.4-0.1c1.6-0.4,3.1-0.9,4.6-1.4
					c0.2-0.1,0.5-0.1,0.7-0.2c1.6-0.6,3.1-1.2,4.7-1.9c0,0,0,0,0,0c17.2-7.6,30.5-22.5,35.9-40.8c0-0.1,0-0.1,0-0.2
					c0.5-1.9,1-3.8,1.4-5.8c0-0.1,0-0.2,0.1-0.3c0.4-1.9,0.6-3.8,0.8-5.8c0-0.1,0-0.2,0-0.3c0.2-2,0.3-4,0.3-6v-28
					C342.8,45.6,325.8,22.2,302,12.7z"/>
				<path id="Path_5_" class="st1" d="M142.7,118.9c0.5-1.9,1-3.8,1.4-5.8c0-0.1,0-0.2,0.1-0.3c0.4-1.9,0.7-3.8,0.8-5.8
					c0-0.1,0-0.2,0-0.3c0.2-2,0.3-4,0.3-6v-28h0.2c0-8,2.8-15.8,8-21.9c4.5-5.3,10.3-9,16.8-10.9c0.1,0,0.2-0.1,0.3-0.1
					c0.9-0.3,1.9-0.5,2.9-0.6c0.3,0,0.6-0.1,0.9-0.1c0.2,0,0.4-0.1,0.7-0.1c0.4,0,0.8-0.1,1.2-0.1c0.5,0,1-0.1,1.6-0.1
					c0.5,0,1-0.1,1.6-0.1c0.3,0,0.6,0,0.9,0c0.7,0,1.5,0,2.2,0.1c0.5,0,1,0.1,1.5,0.2c0.5,0.1,1,0.1,1.6,0.2
					c0.6,0.1,1.1,0.2,1.6,0.4c0.5,0.1,0.9,0.2,1.4,0.3c0.5,0.2,1.1,0.3,1.6,0.5c0.4,0.1,0.8,0.3,1.3,0.5c0.5,0.2,1.1,0.4,1.6,0.7
					c0.4,0.2,0.8,0.4,1.2,0.6c0.5,0.2,1,0.5,1.6,0.8c0.4,0.2,0.7,0.4,1.1,0.6c1,0.6,1.9,1.2,2.8,1.9c4.1,3.1,7.5,7.1,9.9,11.7
					c0.1-0.6,0.3-1.2,0.4-1.8c0.2-0.8,0.4-1.6,0.6-2.4c0.4-1.2,0.8-2.5,1.2-3.7c0.2-0.7,0.5-1.3,0.8-2c0.2-0.5,0.4-1,0.6-1.5
					c0.4-0.9,0.8-1.8,1.2-2.7c0.1-0.2,0.2-0.5,0.3-0.8c0.5-1,1-2,1.6-3c0-0.1,0.1-0.2,0.1-0.3c0.6-1.1,1.2-2.1,1.9-3.2c0,0,0,0,0,0
					c1.9-3.2,4.1-6.2,6.6-9c-2.7-2.7-5.7-5.1-8.8-7.3c0,0,0,0,0.1-0.1c-10.8-7.5-23.4-11.5-36.6-11.5c-2,0-4,0.1-5.9,0.3
					c0,0,0,0-0.1,0c-0.1,0-0.3,0-0.4,0c-0.6,0.1-1.2,0.1-1.8,0.2c-0.8,0.1-1.5,0.2-2.3,0.3c-0.3,0.1-0.7,0.1-1,0.2
					c-1.5,0.3-2.9,0.6-4.3,0.9c-0.1,0-0.3,0.1-0.4,0.1c-1.6,0.4-3.1,0.9-4.6,1.4c-0.2,0.1-0.4,0.2-0.7,0.2c-1.6,0.6-3.1,1.2-4.7,1.9
					c0,0,0,0,0,0c-17.2,7.6-30.5,22.5-35.9,40.8c0,0,0,0.1,0,0.2c-0.6,1.9-1,3.8-1.4,5.8c0,0.1,0,0.2-0.1,0.3
					c-0.4,1.9-0.7,3.8-0.8,5.8c0,0.1,0,0.2,0,0.3c-0.2,2-0.3,4-0.3,6v28v0c0,1.1-0.1,2.1-0.2,3.2c0,0.5-0.1,0.9-0.2,1.4
					c-0.1,0.6-0.2,1.2-0.3,1.7c-0.1,0.6-0.2,1.1-0.4,1.7c-0.1,0.4-0.2,0.9-0.3,1.3c-0.2,0.6-0.4,1.2-0.6,1.8
					c-0.1,0.4-0.3,0.8-0.4,1.1c-0.2,0.6-0.5,1.2-0.7,1.8c-0.2,0.4-0.3,0.7-0.5,1.1c-0.3,0.6-0.6,1.1-0.9,1.7
					c-0.2,0.4-0.4,0.7-0.7,1.1c-0.3,0.5-0.6,1-1,1.5c-0.3,0.4-0.6,0.7-0.8,1.1c-0.3,0.5-0.7,0.9-1.1,1.4c-0.1,0.1-0.2,0.3-0.4,0.4
					c-0.7,0.8-1.3,1.5-2.1,2.2c-0.3,0.2-0.5,0.5-0.8,0.7c-0.6,0.5-1.2,1.1-1.8,1.6c-0.3,0.3-0.7,0.5-1,0.8c-0.6,0.4-1.2,0.9-1.8,1.2
					c-0.4,0.2-0.8,0.5-1.2,0.7c-0.6,0.4-1.3,0.7-1.9,1c-0.4,0.2-0.8,0.4-1.2,0.6c-0.7,0.3-1.3,0.6-2,0.8c-0.4,0.2-0.8,0.3-1.3,0.5
					c-0.7,0.2-1.4,0.4-2.1,0.6c-0.4,0.1-0.9,0.2-1.3,0.4c-0.7,0.1-1.4,0.2-2.1,0.4c-0.5,0.1-1,0.2-1.5,0.2c-0.7,0.1-1.3,0.1-2,0.1
					c-0.5,0-1,0.1-1.6,0.1c-0.3,0-0.6,0-0.9,0c-0.6,0-1.1,0-1.7-0.1c-0.2,0-0.4,0-0.6-0.1c-0.5,0-1-0.1-1.5-0.2
					c-0.4,0-0.7-0.1-1.1-0.2c-0.3-0.1-0.5-0.1-0.8-0.1c-0.2,0-0.4-0.1-0.7-0.1c-0.3-0.1-0.7-0.2-1-0.2c-0.1,0-0.2,0-0.3-0.1
					c-14.6-3.8-25.4-17.1-25.4-33V72.8c0-1.2,0.1-2.4,0.2-3.8l0.1-1.7v0v0h0l0.2-2.3c0.3-3.1,1.2-7.7,3.7-13c1.4-3,3.1-5.8,5.2-8.3
					c2.1-2.5,4.3-4.7,6.9-6.5c0.3-0.2,0.6-0.4,0.8-0.7l0.2-0.2c1.1-0.9,1.5-1.6,1.7-1.9l0.1-0.2c0.1-0.1,0.1-0.2,0.2-0.3
					c0.3-0.6,0.5-1.1,0.6-1.6l0-0.3c-0.1-1.7-0.7-3.5-1.7-5.4l-0.1-0.2c-2-3.5-5.1-6.6-7.4-8.5l-0.7-0.6l0,0l-0.2-0.2l0,0
					c-0.3-0.2-0.6-0.4-0.9-0.6c-4.4-2.6-8.4-2.7-12.8-0.1c-2.2,1.3-4.4,3.2-6.6,5.6c-7.7,7.8-17.3,21.5-19.5,43l-0.1,0.6l0,0.4
					c-0.2,2.3-0.4,4.5-0.4,6.7v3h-0.1v25c0,27.2,16.9,50.6,40.8,60.1c0.1,0,0.2,0.1,0.3,0.1c2.8,1.1,5.6,2,8.5,2.7
					c0.3,0.1,0.7,0.2,1.1,0.2c1.4,0.3,2.8,0.6,4.2,0.8c0.1,0,0.2,0,0.3,0c0.8,0.1,1.7,0.2,2.6,0.3c0.4,0,0.8,0.1,1.2,0.1
					c0.1,0,0.2,0,0.2,0c0.4,0,0.8,0.1,1.1,0.1c0.1,0,0.2,0,0.2,0c0.5,0,1.1,0.1,1.6,0.1c0.7,0,1.4,0.1,2.1,0.1c0.2,0,0.3,0,0.4,0
					c1.6,0,3.2-0.1,4.8-0.2c0.3,0,0.7-0.1,1-0.1c1.5-0.1,3-0.3,4.5-0.6c0.3-0.1,0.7-0.1,1-0.2c1.4-0.3,2.9-0.6,4.3-0.9
					c0.1,0,0.3-0.1,0.4-0.1c1.6-0.4,3.1-0.9,4.6-1.4c0.2-0.1,0.5-0.1,0.7-0.2c1.6-0.6,3.1-1.2,4.7-1.9c0,0,0,0,0.1,0
					c17.2-7.6,30.5-22.5,35.9-40.8C142.7,119.1,142.7,119,142.7,118.9z"/>
			</g>
		</g>
	</g>
	<path id="إصدارتجريبي" class="st0" d="M318.7,262v-39.3h-4.9V262H318.7z M320,275.5v-2.3h-0.8c-0.7,0-1.3-0.1-1.8-0.3
		s-0.9-0.4-1.2-0.7s-0.6-0.6-0.7-0.9s-0.2-0.7-0.2-1c0-0.7,0.3-1.2,0.8-1.6s1.2-0.5,1.9-0.5c0.3,0,0.7,0,1,0.1s0.5,0.1,0.7,0.1l0,0
		l0.4-2.3c-0.4-0.1-0.8-0.1-1.2-0.1s-0.7,0-1,0c-0.8,0-1.5,0.1-2.1,0.3s-1.1,0.5-1.5,0.8s-0.7,0.7-0.9,1.2s-0.3,0.9-0.3,1.4
		s0.1,0.9,0.2,1.3s0.3,0.7,0.5,1s0.4,0.6,0.6,0.8s0.4,0.4,0.5,0.5l0,0h-3.1v2.3H320z M261,262c1.2,0,2.2-0.3,3-0.8
		c0.8-0.5,1.4-1.2,1.9-1.9c0.5,0.5,1.1,0.9,1.8,1.3c0.6,0.3,1.3,0.6,2,0.8s1.4,0.4,2.2,0.5s1.5,0.2,2.2,0.2l0,0h30.8v-9.6
		c0-1.9-0.2-3.7-0.7-5.3s-1.1-3.1-2.1-4.3s-2.2-2.2-3.7-2.9s-3.3-1-5.4-1c-1.7,0-3.4,0.3-4.9,0.9s-2.9,1.4-4.2,2.4s-2.5,2.1-3.5,3.4
		s-2,2.6-2.8,3.9s-1.5,2.7-2.1,4s-1,2.5-1.4,3.6c-1.5,0-2.8-0.1-4-0.4c-1.2-0.3-2.3-0.8-3.3-1.5l0,0v-9h-4.9v7.8
		c0,1-0.2,1.8-0.5,2.3c-0.3,0.5-0.8,0.8-1.4,0.8l0,0h-5.4c-0.3,0-0.5,0-0.8,0.1s-0.4,0.1-0.6,0.2s-0.3,0.3-0.4,0.5s-0.2,0.5-0.2,0.8
		l0,0v1.9c0,0.5,0.2,0.9,0.5,1.1s0.8,0.3,1.5,0.3l0,0H261z M299.9,257.1h-21c0.3-1,0.6-2,1.1-3s1-2.1,1.6-3s1.3-1.9,2.1-2.8
		s1.6-1.7,2.5-2.3s1.9-1.2,2.9-1.6s2.1-0.6,3.3-0.6c1,0,2,0.2,2.9,0.5s1.7,0.8,2.4,1.5s1.2,1.7,1.6,2.9s0.6,2.7,0.6,4.4l0,0V257.1z
		 M236.9,262c2.2,0,3.9-0.3,5.3-0.9s2.5-1.4,3.3-2.4c0.5,0.5,1,0.9,1.5,1.3s1.2,0.7,1.9,1s1.5,0.5,2.4,0.7s1.9,0.2,2.9,0.2l0,0h0.3
		c0.3,0,0.5,0,0.8-0.1s0.4-0.1,0.6-0.2s0.3-0.3,0.4-0.5c0.1-0.2,0.2-0.5,0.2-0.8l0,0v-1.9c0-0.5-0.2-0.9-0.5-1.1
		c-0.3-0.2-0.8-0.3-1.5-0.3l0,0h-0.2c-1.6,0-3-0.2-4.2-0.5s-2.2-0.8-3-1.5c0.1-0.6,0.2-1.2,0.2-1.9c0-1.3-0.3-2.7-0.8-4.1
		s-1.3-2.7-2.2-4.1s-2-2.6-3.1-3.8s-2.3-2.4-3.5-3.4l0,0l-3.6,3.6c1.1,0.9,2.1,1.8,3.2,2.8s2,2,2.9,3.1s1.5,2.1,2.1,3.2
		s0.8,2.1,0.8,3c0,0.5-0.1,1-0.3,1.5s-0.5,0.8-1,1.1s-1.1,0.5-2,0.7s-1.9,0.2-3.2,0.2l0,0H227v4.9H236.9z M220.1,262v-39.3h-4.9V262
		H220.1z M192.7,273.4c2.3-0.3,4.2-0.8,5.9-1.4s3-1.6,4.1-2.8s1.9-2.8,2.4-4.6c0.5-1.9,0.8-4.2,0.8-7l0,0v-16.7H201V259
		c0,1.4-0.1,2.6-0.3,3.7s-0.6,2-1.2,2.9s-1.5,1.5-2.6,2s-2.7,0.9-4.7,1.2l0,0L192.7,273.4z M165.9,233.9c0.4,0,0.8-0.1,1.1-0.2
		s0.7-0.4,0.9-0.6s0.5-0.6,0.6-0.9s0.2-0.7,0.2-1.1s-0.1-0.8-0.2-1.1s-0.4-0.7-0.6-0.9s-0.6-0.5-0.9-0.6s-0.7-0.2-1.1-0.2
		s-0.8,0.1-1.1,0.2s-0.7,0.4-0.9,0.6s-0.5,0.6-0.6,0.9s-0.2,0.7-0.2,1.1c0,0.8,0.3,1.5,0.8,2.1S165.1,233.9,165.9,233.9z
		 M173.7,233.9c0.4,0,0.8-0.1,1.1-0.2s0.7-0.4,0.9-0.6s0.5-0.6,0.6-0.9s0.2-0.7,0.2-1.1s-0.1-0.8-0.2-1.1s-0.4-0.7-0.6-0.9
		s-0.6-0.5-0.9-0.6s-0.7-0.2-1.1-0.2s-0.8,0.1-1.1,0.2s-0.7,0.4-0.9,0.6s-0.5,0.6-0.6,0.9s-0.2,0.7-0.2,1.1c0,0.8,0.3,1.5,0.8,2.1
		S172.9,233.9,173.7,233.9z M172.8,262v-21.1h-4.9v16.2h-9c-0.3,0-0.5,0-0.8,0.1s-0.4,0.1-0.6,0.2s-0.3,0.3-0.4,0.5
		s-0.2,0.5-0.2,0.8l0,0v1.9c0,0.5,0.2,0.9,0.5,1.1s0.8,0.3,1.5,0.3l0,0H172.8z M158.9,262c0.3,0,0.5,0,0.8-0.1s0.4-0.1,0.6-0.2
		s0.3-0.3,0.4-0.5s0.2-0.5,0.2-0.8l0,0v-1.9c0-0.5-0.2-0.9-0.5-1.1s-0.8-0.3-1.5-0.3l0,0h-2.5c-0.7,0-1.2-0.2-1.7-0.7
		c-0.4-0.5-0.8-1.1-1.1-2s-0.5-1.8-0.7-2.8s-0.4-2.2-0.5-3.4c-0.2-1.3-0.5-2.5-1-3.5s-1.1-2-1.9-2.8s-1.7-1.4-2.8-1.8
		s-2.3-0.7-3.7-0.7c-1.4,0-2.6,0.1-3.7,0.4c-1.1,0.2-2.2,0.5-3.3,0.8l0,0v4.5c0.3-0.1,0.7-0.3,1.2-0.4c0.5-0.1,1-0.2,1.5-0.3
		c0.5-0.1,1-0.2,1.6-0.2c0.5-0.1,1-0.1,1.4-0.1c1.4,0,2.6,0.3,3.4,0.8s1.5,1.2,2.1,2.1s0.9,1.8,1.1,2.9s0.4,2.1,0.6,3.2
		c0.2,1.1,0.4,2.1,0.6,2.7s0.6,1.2,0.9,1.6l0,0h-19.4c-0.3,0-0.5,0-0.8,0.1c-0.2,0-0.4,0.1-0.6,0.2c-0.2,0.1-0.3,0.3-0.4,0.5
		c-0.1,0.2-0.2,0.5-0.2,0.8l0,0v1.9c0,0.5,0.2,0.9,0.5,1.1s0.8,0.3,1.5,0.3l0,0H158.9z M143.4,273.1c0.4,0,0.8-0.1,1.1-0.2
		s0.7-0.4,0.9-0.6s0.5-0.6,0.6-0.9s0.2-0.7,0.2-1.1s-0.1-0.8-0.2-1.1s-0.4-0.7-0.6-0.9s-0.6-0.5-0.9-0.6s-0.7-0.2-1.1-0.2
		c-0.4,0-0.8,0.1-1.1,0.2s-0.7,0.4-0.9,0.6c-0.3,0.3-0.5,0.6-0.6,0.9c-0.2,0.4-0.2,0.7-0.2,1.1c0,0.8,0.3,1.5,0.8,2.1
		C141.9,272.8,142.6,273.1,143.4,273.1z M111.2,273.4c1.9-0.3,3.6-0.7,5.1-1.2s2.8-1.2,3.8-2.1s1.9-2,2.6-3.3s1.1-2.9,1.4-4.9l0,0
		h6.7c0.3,0,0.5,0,0.8-0.1c0.2,0,0.4-0.1,0.6-0.2c0.2-0.1,0.3-0.3,0.4-0.5c0.1-0.2,0.2-0.5,0.2-0.8l0,0v-1.9c0-0.5-0.2-0.9-0.5-1.1
		s-0.8-0.3-1.5-0.3l0,0h-6.4v-16.2h-4.9V259c0,1.4-0.1,2.6-0.3,3.7s-0.6,2-1.2,2.9s-1.5,1.5-2.6,2s-2.7,0.9-4.7,1.2l0,0L111.2,273.4
		z M103.8,262v-21.1h-4.9v16.2h-9c-0.3,0-0.5,0-0.8,0.1s-0.4,0.1-0.6,0.2s-0.3,0.3-0.4,0.5s-0.2,0.5-0.2,0.8l0,0v1.9
		c0,0.5,0.2,0.9,0.5,1.1s0.8,0.3,1.5,0.3l0,0H103.8z M96.2,273.1c0.4,0,0.8-0.1,1.1-0.2s0.7-0.4,0.9-0.6s0.5-0.6,0.6-0.9
		s0.2-0.7,0.2-1.1s-0.1-0.8-0.2-1.1s-0.4-0.7-0.6-0.9s-0.6-0.5-0.9-0.6s-0.7-0.2-1.1-0.2s-0.8,0.1-1.1,0.2s-0.7,0.4-0.9,0.6
		s-0.5,0.6-0.6,0.9s-0.2,0.7-0.2,1.1c0,0.8,0.3,1.5,0.8,2.1S95.3,273.1,96.2,273.1z M103.9,273.1c0.4,0,0.8-0.1,1.1-0.2
		s0.7-0.4,0.9-0.6s0.5-0.6,0.6-0.9s0.2-0.7,0.2-1.1s-0.1-0.8-0.2-1.1s-0.4-0.7-0.6-0.9s-0.6-0.5-0.9-0.6s-0.7-0.2-1.1-0.2
		s-0.8,0.1-1.1,0.2s-0.7,0.4-0.9,0.6s-0.5,0.6-0.6,0.9s-0.2,0.7-0.2,1.1c0,0.8,0.3,1.5,0.8,2.1S103.1,273.1,103.9,273.1z M76.8,262
		c1.2,0,2.1-0.3,2.9-0.8s1.4-1.1,1.8-1.8c0.9,0.7,2,1.4,3.2,1.9s2.8,0.7,4.7,0.7l0,0h0.3c0.3,0,0.5,0,0.8-0.1s0.4-0.1,0.6-0.2
		s0.3-0.3,0.4-0.5s0.2-0.5,0.2-0.8l0,0v-1.9c0-0.5-0.2-0.9-0.5-1.1s-0.8-0.3-1.5-0.3l0,0h-0.2c-1.5,0-2.9-0.1-4-0.4
		s-2.1-0.7-2.9-1.3l0,0v-14.5h-4.9V254c0,1-0.2,1.8-0.5,2.3c-0.3,0.5-0.8,0.8-1.4,0.8l0,0h-5.5c-0.3,0-0.5,0-0.8,0.1
		c-0.2,0-0.4,0.1-0.6,0.2c-0.2,0.1-0.3,0.3-0.4,0.5c-0.1,0.2-0.2,0.5-0.2,0.8l0,0v1.9c0,0.5,0.2,0.9,0.5,1.1s0.8,0.3,1.5,0.3l0,0
		H76.8z M80.1,273.1c0.4,0,0.8-0.1,1.1-0.2s0.7-0.4,0.9-0.6s0.5-0.6,0.6-0.9s0.2-0.7,0.2-1.1s-0.1-0.8-0.2-1.1s-0.4-0.7-0.6-0.9
		s-0.6-0.5-0.9-0.6s-0.7-0.2-1.1-0.2s-0.8,0.1-1.1,0.2s-0.7,0.4-0.9,0.6c-0.3,0.3-0.5,0.6-0.6,0.9c-0.2,0.4-0.2,0.7-0.2,1.1
		c0,0.8,0.3,1.5,0.8,2.1C78.6,272.8,79.3,273.1,80.1,273.1z M34.4,273.9c2.6,0,5-0.4,7-1.2c2.1-0.8,3.8-1.8,5.2-3.1
		c1.4-1.3,2.5-2.7,3.3-4.3c0.8-1.6,1.1-3.3,1.1-5l0,0v-8.1c0-1.4,0.2-2.6,0.5-3.5s0.9-1.6,1.5-2.1s1.5-0.8,2.4-1s2-0.2,3.2-0.2l0,0
		h1v8.6c0,1.5,0.2,2.7,0.6,3.7s0.9,1.8,1.6,2.4s1.4,1.1,2.2,1.3c0.8,0.3,1.7,0.4,2.6,0.4l0,0h3.4c0.3,0,0.5,0,0.8-0.1
		c0.2,0,0.4-0.1,0.6-0.2c0.2-0.1,0.3-0.3,0.4-0.5c0.1-0.2,0.2-0.5,0.2-0.8l0,0v-1.9c0-0.5-0.2-0.9-0.5-1.1s-0.8-0.3-1.5-0.3l0,0
		h-2.6c-0.5,0-0.9-0.1-1.3-0.2c-0.4-0.1-0.7-0.3-0.9-0.7c-0.2-0.3-0.4-0.8-0.5-1.5c-0.1-0.7-0.2-1.5-0.2-2.7l0,0v-11.2h-7.3
		c-3.8,0-6.7,0.9-8.5,2.7c-1.8,1.8-2.8,4.5-2.8,8.2l0,0v9.1c0,1-0.3,2-0.8,3c-0.5,0.9-1.3,1.8-2.3,2.5s-2.2,1.3-3.7,1.8
		c-1.5,0.4-3.1,0.7-4.9,0.7c-1.9,0-3.5-0.2-4.9-0.5s-2.6-0.7-3.6-1.2s-1.8-1.1-2.4-1.8c-0.6-0.7-1.1-1.4-1.5-2.1
		c-0.4-0.7-0.6-1.5-0.8-2.2s-0.2-1.4-0.2-2c0-0.7,0.1-1.4,0.2-2.1s0.3-1.4,0.5-2.1c0.2-0.7,0.5-1.3,0.7-1.9c0.3-0.6,0.6-1.2,0.9-1.6
		l0,0l-4-2.2c-0.5,0.6-0.9,1.3-1.3,2c-0.4,0.8-0.7,1.6-1,2.5c-0.3,0.9-0.5,1.8-0.7,2.8c-0.2,1-0.2,2-0.2,3c0,0.8,0.1,1.7,0.3,2.7
		c0.2,1,0.6,2.1,1.1,3.1s1.2,2.1,2.1,3.2c0.9,1,2,2,3.4,2.8c1.4,0.8,3,1.5,4.8,2C29.7,273.6,31.9,273.9,34.4,273.9z M30.7,283.5
		c0.4,0,0.8-0.1,1.1-0.2c0.4-0.2,0.7-0.4,0.9-0.6c0.3-0.3,0.5-0.6,0.6-0.9c0.2-0.4,0.2-0.7,0.2-1.1s-0.1-0.8-0.2-1.1
		c-0.2-0.4-0.4-0.7-0.6-0.9c-0.3-0.3-0.6-0.5-0.9-0.6c-0.4-0.2-0.7-0.2-1.1-0.2c-0.4,0-0.8,0.1-1.1,0.2s-0.7,0.4-0.9,0.6
		c-0.3,0.3-0.5,0.6-0.6,0.9c-0.2,0.4-0.2,0.7-0.2,1.1c0,0.8,0.3,1.5,0.8,2.1C29.2,283.2,29.8,283.5,30.7,283.5z M38.5,283.5
		c0.4,0,0.8-0.1,1.1-0.2s0.7-0.4,0.9-0.6c0.3-0.3,0.5-0.6,0.6-0.9c0.2-0.4,0.2-0.7,0.2-1.1s-0.1-0.8-0.2-1.1
		c-0.2-0.4-0.4-0.7-0.6-0.9c-0.3-0.3-0.6-0.5-0.9-0.6s-0.7-0.2-1.1-0.2c-0.4,0-0.8,0.1-1.1,0.2s-0.7,0.4-0.9,0.6
		c-0.3,0.3-0.5,0.6-0.6,0.9c-0.2,0.4-0.2,0.7-0.2,1.1c0,0.8,0.3,1.5,0.8,2.1C36.9,283.2,37.6,283.5,38.5,283.5z"/>
</g>
</svg>
