<svg width="377" height="277" viewBox="0 0 377 277" version="1.1" xmlns="http://www.w3.org/2000/svg" xmlns:xlink="http://www.w3.org/1999/xlink">
            <g id="Qiwa-logo-beta-color" stroke="none" stroke-width="1" fill="none" fill-rule="evenodd">
                <g id="Qiwa-Logo-10032019-01" transform="translate(49.000000, 0.000000)" fill-rule="nonzero" fill="none">
                    <g id="Layer_3_copy" fill="none">
                        <path d="M265.84,11.5 L265.84,31.56 L286.95,31.56 C292.9,31.32 296.34,27.51 296.34,21.08 L296.34,1.05 L275.22,1.05 C269.25,1.32 265.84,5.12 265.84,11.5" id="Path" fill="#FFFFFF"></path>
                        <path d="M228.37,11.5 L228.37,31.56 L249.48,31.56 C255.43,31.32 258.87,27.51 258.87,21.08 L258.87,1.05 L237.75,1.05 C231.79,1.32 228.37,5.12 228.37,11.5" id="Path" fill="#FFFFFF"></path>
                        <path d="M52.73,37.44 L47.37,32.08 C47.13,32.11 46.89,32.13 46.65,32.16 C46.41,32.18 46.17,32.19 45.93,32.19 C43.5,32.19 41.35,31.8 39.48,31.02 C37.61,30.24 36.04,29.15 34.77,27.74 C33.5,26.33 32.54,24.65 31.89,22.69 C31.24,20.73 30.91,18.58 30.91,16.24 C30.91,13.87 31.24,11.72 31.89,9.78 C32.54,7.84 33.5,6.19 34.77,4.81 C36.04,3.43 37.61,2.37 39.48,1.62 C41.35,0.87 43.5,0.49 45.93,0.49 C48.34,0.49 50.48,0.87 52.35,1.63 C54.22,2.39 55.78,3.46 57.05,4.84 C58.32,6.23 59.29,7.88 59.94,9.81 C60.6,11.74 60.93,13.88 60.93,16.24 C60.93,17.77 60.79,19.24 60.51,20.65 C60.23,22.06 59.78,23.37 59.17,24.59 C58.56,25.81 57.76,26.93 56.78,27.93 C55.8,28.94 54.61,29.81 53.21,30.55 L60.13,37.43 L52.73,37.44 L52.73,37.44 Z M45.93,5.31 C44.39,5.31 43.07,5.64 41.98,6.28 C40.89,6.93 39.99,7.78 39.3,8.82 C38.61,9.86 38.1,11.05 37.79,12.37 C37.48,13.69 37.32,15.02 37.32,16.37 C37.32,17.73 37.48,19.06 37.8,20.38 C38.12,21.7 38.63,22.87 39.31,23.9 C39.99,24.93 40.88,25.76 41.98,26.4 C43.07,27.04 44.39,27.35 45.93,27.35 C47.5,27.35 48.83,27.03 49.93,26.39 C51.02,25.75 51.91,24.9 52.59,23.85 C53.27,22.8 53.76,21.61 54.07,20.28 C54.38,18.95 54.53,17.61 54.53,16.25 C54.53,14.89 54.37,13.56 54.06,12.25 C53.75,10.94 53.25,9.77 52.56,8.75 C51.88,7.72 50.99,6.89 49.9,6.26 C48.81,5.63 47.49,5.31 45.93,5.31" id="Shape" fill="#FFFFFF"></path>
                        <rect id="Rectangle" fill="#FFFFFF" x="67.68" y="1.01" width="6.15" height="30.64"></rect>
                        <polygon id="Path" fill="#FFFFFF" points="78.95 1.01 85.42 1.01 91.12 25.5 91.21 25.5 96.44 1.01 104.77 1.01 110.17 25.5 110.26 25.5 116 1.01 121.98 1.01 113.98 31.65 106.08 31.65 100.55 7.16 100.46 7.16 95.02 31.65 87.07 31.65"></polygon>
                        <path d="M134.77,1.01 L141.71,1.01 L153.73,31.65 L146.94,31.65 L144.3,24.62 L131.87,24.62 L129.19,31.65 L122.83,31.65 L134.77,1.01 Z M138.15,7.16 L138.06,7.16 L133.63,19.8 L142.59,19.8 L138.15,7.16 Z" id="Shape" fill="#FFFFFF"></path>
                        <path d="M197.79,195.99 L197.77,207.48 C197.77,207.48 197.3,219.35 195.3,224.37 C193.95,227.75 192.07,230.86 189.73,233.65 C183.22,241.39 173.72,245.83 163.66,245.83 C154.87,245.83 146.52,242.47 140.14,236.37 C139.47,235.74 138.84,235.22 138.23,234.8 C137.52,234.31 136.82,233.95 136.16,233.72 C134.82,233.25 133.87,233.41 133.31,233.61 C133.22,233.65 133.01,233.76 132.8,233.88 C131.83,234.43 130.82,235.25 129.93,235.98 C128.25,237.35 126.73,238.86 125.19,240.66 C123.04,243.18 121.09,245.96 119.42,248.92 C119.24,249.25 119.05,249.58 118.88,249.91 C117.44,254.3 119.71,258.35 121.21,260.39 L121.56,260.96 C121.87,261.41 123.52,262.87 124.06,263.35 C124.36,263.61 124.61,263.84 124.78,264 C145.43,281.26 173.78,276.68 185.03,273.9 C186.81,273.51 188.49,273.03 190.13,272.46 L190.58,272.31 C191.96,271.81 193.07,271.36 194.08,270.89 L194.67,270.67 C194.79,270.61 195.08,270.47 195.58,270.19 L195.81,270.07 C205.75,265.17 213.21,258.75 219.27,249.86 C225.22,241.13 228.37,229.96 228.37,217.54 L228.37,196.3 C222.62,193.14 217.41,189.22 212.82,184.68 C208.37,189.06 203.33,192.88 197.79,195.99 Z" id="Path" fill="#FFFFFF"></path>
                        <g id="Group" transform="translate(0.000000, 42.000000)" fill="#2F2F7E">
                            <path d="M286.32,4.72 C286.23,4.68 286.13,4.65 286.04,4.61 C283.28,3.52 280.43,2.62 277.5,1.92 C277.15,1.83 276.79,1.75 276.44,1.67 C275.06,1.36 273.67,1.09 272.26,0.87 C272.16,0.85 272.06,0.85 271.96,0.83 C270.63,0.63 269.29,0.49 267.94,0.37 C267.56,0.34 267.18,0.31 266.8,0.28 C265.36,0.18 263.91,0.12 262.44,0.12 C260.81,0.12 259.2,0.2 257.6,0.32 C257.26,0.34 256.93,0.37 256.59,0.4 C255.06,0.54 253.54,0.73 252.05,0.97 C251.72,1.02 251.38,1.09 251.05,1.15 C249.6,1.41 248.16,1.71 246.74,2.06 C246.61,2.09 246.48,2.12 246.35,2.15 C244.79,2.55 243.25,3.03 241.74,3.54 C241.52,3.62 241.29,3.69 241.07,3.77 C239.48,4.33 237.92,4.95 236.4,5.62 C236.39,5.63 236.37,5.63 236.36,5.64 C223.27,11.43 212.47,21.44 205.66,33.94 C205.65,33.95 205.64,33.97 205.63,33.98 C205.53,34.16 205.44,34.35 205.34,34.53 C205.23,34.74 205.13,34.95 205.02,35.16 C204.74,35.7 204.46,36.23 204.19,36.77 C204.16,36.82 204.13,36.87 204.11,36.93 C203.96,37.25 203.82,37.58 203.67,37.9 C203.45,38.39 203.23,38.88 203.01,39.37 C202.95,39.52 202.88,39.66 202.81,39.81 C202.78,39.87 202.75,39.93 202.73,40 C202.51,40.52 202.32,41.06 202.11,41.59 C201.91,42.12 201.69,42.64 201.5,43.17 C201.11,44.25 200.75,45.35 200.43,46.46 C200.41,46.51 200.4,46.57 200.38,46.62 C199.83,48.5 199.35,50.42 198.97,52.37 C198.95,52.48 198.93,52.58 198.91,52.69 C198.55,54.6 198.26,56.53 198.07,58.49 C198.06,58.6 198.06,58.71 198.04,58.82 C197.86,60.78 197.76,62.75 197.75,64.76 C197.75,64.77 197.75,64.78 197.75,64.79 L197.75,92.75 C197.75,93.83 197.69,94.9 197.59,95.96 C197.55,96.42 197.47,96.87 197.41,97.33 C197.33,97.91 197.25,98.49 197.15,99.06 C197.04,99.62 196.91,100.18 196.78,100.74 C196.67,101.18 196.56,101.63 196.44,102.06 C196.27,102.66 196.08,103.25 195.88,103.83 C195.75,104.21 195.61,104.59 195.46,104.97 C195.23,105.56 194.99,106.15 194.73,106.74 C194.57,107.1 194.39,107.46 194.21,107.81 C193.93,108.38 193.65,108.94 193.34,109.49 C193.13,109.86 192.91,110.21 192.68,110.57 C192.36,111.09 192.05,111.61 191.7,112.11 C191.44,112.49 191.15,112.85 190.87,113.22 C190.53,113.68 190.19,114.14 189.82,114.58 C189.7,114.72 189.57,114.85 189.45,114.99 C188.79,115.75 188.11,116.49 187.39,117.18 C187.13,117.43 186.85,117.67 186.58,117.91 C185.98,118.46 185.37,118.99 184.74,119.49 C184.4,119.76 184.06,120.01 183.71,120.26 C183.11,120.7 182.5,121.12 181.87,121.51 C181.49,121.75 181.1,121.99 180.71,122.22 C180.08,122.58 179.45,122.92 178.8,123.24 C178.39,123.44 177.98,123.65 177.56,123.84 C176.9,124.14 176.22,124.4 175.54,124.65 C175.11,124.81 174.69,124.98 174.25,125.12 C173.56,125.35 172.86,125.53 172.15,125.71 C171.7,125.83 171.26,125.96 170.8,126.06 C170.11,126.21 169.4,126.3 168.7,126.41 C168.21,126.48 167.74,126.58 167.24,126.63 C166.58,126.7 165.92,126.71 165.25,126.74 C164.72,126.76 164.21,126.82 163.68,126.82 C163.36,126.82 163.06,126.79 162.74,126.78 C162.01,126.76 161.28,126.74 160.56,126.67 C160.04,126.62 159.52,126.54 159.01,126.47 C158.49,126.4 157.97,126.33 157.46,126.23 C156.91,126.13 156.36,126 155.82,125.87 C155.36,125.76 154.9,125.64 154.45,125.52 C153.9,125.36 153.35,125.2 152.81,125.02 C152.38,124.88 151.96,124.72 151.54,124.55 C151,124.34 150.46,124.14 149.93,123.9 C149.53,123.72 149.13,123.52 148.74,123.32 C148.22,123.06 147.69,122.82 147.18,122.53 C146.83,122.34 146.5,122.11 146.16,121.91 C145.17,121.31 144.21,120.67 143.28,119.97 C139.17,116.88 135.78,112.89 133.4,108.29 C133.08,109.67 132.74,111.07 132.32,112.48 C129.43,122.24 124.55,131.07 118.12,138.55 C124.26,144.66 131.6,149.57 139.78,152.83 C139.87,152.87 139.97,152.9 140.06,152.94 C142.82,154.03 145.67,154.93 148.59,155.63 C148.94,155.72 149.3,155.8 149.65,155.88 C151.03,156.19 152.42,156.46 153.83,156.68 C153.93,156.7 154.03,156.7 154.13,156.72 C155.46,156.92 156.8,157.06 158.15,157.18 C158.53,157.21 158.91,157.24 159.29,157.27 C160.73,157.37 162.18,157.43 163.65,157.43 C165.28,157.43 166.89,157.35 168.49,157.23 C168.83,157.21 169.16,157.18 169.5,157.15 C171.03,157.01 172.54,156.82 174.04,156.58 C174.37,156.53 174.71,156.46 175.04,156.4 C176.49,156.14 177.92,155.84 179.34,155.49 C179.47,155.46 179.6,155.43 179.74,155.4 C181.3,155 182.83,154.52 184.35,154.01 C184.58,153.93 184.81,153.86 185.03,153.78 C186.61,153.22 188.17,152.61 189.7,151.93 C189.72,151.92 189.73,151.91 189.75,151.91 C198.79,147.91 206.73,141.88 213.03,134.43 C213.04,134.44 213.04,134.45 213.05,134.45 C213.38,134.06 213.7,133.64 214.02,133.24 C214.2,133.02 214.38,132.8 214.56,132.57 C215.14,131.83 215.7,131.08 216.25,130.31 C216.35,130.17 216.45,130.03 216.55,129.89 C220.55,124.22 223.69,117.9 225.7,111.09 C225.72,111.04 225.73,110.98 225.75,110.93 C226.3,109.05 226.78,107.13 227.16,105.18 C227.18,105.07 227.2,104.97 227.22,104.86 C227.58,102.95 227.87,101.02 228.06,99.06 C228.07,98.95 228.07,98.84 228.09,98.73 C228.27,96.77 228.38,94.78 228.38,92.77 C228.38,92.76 228.38,92.75 228.38,92.75 L228.38,64.8 C228.38,63.72 228.44,62.65 228.54,61.59 C228.58,61.13 228.66,60.68 228.72,60.22 C228.8,59.64 228.88,59.06 228.98,58.49 C229.09,57.93 229.22,57.37 229.35,56.81 C229.46,56.37 229.57,55.92 229.69,55.49 C229.86,54.89 230.05,54.3 230.25,53.72 C230.38,53.34 230.52,52.96 230.67,52.58 C230.9,51.99 231.14,51.4 231.4,50.81 C231.56,50.45 231.74,50.09 231.92,49.74 C232.2,49.17 232.48,48.61 232.8,48.06 C233.01,47.69 233.23,47.34 233.45,46.99 C233.77,46.47 234.08,45.95 234.43,45.45 C234.69,45.07 234.98,44.71 235.25,44.35 C235.6,43.89 235.93,43.42 236.3,42.98 C236.42,42.84 236.55,42.72 236.66,42.58 C237.32,41.82 238.01,41.08 238.72,40.38 C238.98,40.13 239.26,39.89 239.52,39.65 C240.12,39.1 240.73,38.57 241.37,38.07 C241.7,37.81 242.05,37.55 242.39,37.3 C242.99,36.86 243.6,36.44 244.23,36.04 C244.61,35.8 245,35.56 245.39,35.33 C246.02,34.97 246.65,34.63 247.3,34.31 C247.71,34.11 248.12,33.9 248.54,33.71 C249.2,33.41 249.88,33.15 250.55,32.9 C250.98,32.74 251.4,32.57 251.84,32.43 C252.53,32.2 253.23,32.02 253.94,31.84 C254.39,31.72 254.83,31.59 255.29,31.49 C255.98,31.34 256.69,31.25 257.39,31.14 C257.88,31.07 258.35,30.97 258.85,30.92 C259.51,30.85 260.17,30.84 260.84,30.81 C261.37,30.79 261.88,30.73 262.41,30.73 C262.73,30.73 263.03,30.76 263.35,30.77 C264.08,30.79 264.81,30.81 265.53,30.88 C266.05,30.93 266.57,31.01 267.08,31.08 C267.6,31.15 268.12,31.22 268.63,31.32 C269.18,31.42 269.73,31.55 270.27,31.67 C270.73,31.78 271.19,31.9 271.64,32.02 C272.19,32.18 272.74,32.34 273.28,32.52 C273.71,32.66 274.13,32.82 274.55,32.99 C275.09,33.2 275.63,33.4 276.16,33.64 C276.57,33.82 276.96,34.02 277.36,34.22 C277.88,34.47 278.4,34.72 278.91,35 C279.27,35.2 279.61,35.43 279.97,35.64 C280.94,36.23 281.88,36.86 282.79,37.54 C291.09,43.76 296.49,53.64 296.49,64.79 L296.49,92.75 C296.49,93.83 296.43,94.9 296.33,95.96 C296.29,96.42 296.21,96.87 296.15,97.33 C296.07,97.91 295.99,98.49 295.89,99.06 C295.78,99.62 295.65,100.18 295.52,100.74 C295.41,101.18 295.3,101.63 295.18,102.06 C295.01,102.66 294.82,103.25 294.62,103.83 C294.49,104.21 294.35,104.59 294.2,104.97 C293.97,105.56 293.73,106.15 293.47,106.74 C293.31,107.1 293.13,107.46 292.95,107.81 C292.67,108.38 292.39,108.94 292.08,109.49 C291.87,109.86 291.65,110.21 291.42,110.57 C291.1,111.09 290.79,111.61 290.44,112.11 C290.18,112.49 289.89,112.85 289.61,113.22 C289.27,113.68 288.93,114.14 288.56,114.58 C288.44,114.72 288.31,114.85 288.19,114.99 C287.53,115.75 286.85,116.49 286.13,117.18 C285.87,117.43 285.59,117.67 285.32,117.91 C284.72,118.46 284.11,118.99 283.48,119.49 C283.14,119.76 282.8,120.01 282.45,120.26 C281.85,120.7 281.24,121.12 280.61,121.51 C280.23,121.75 279.84,121.99 279.45,122.22 C278.82,122.58 278.19,122.92 277.54,123.24 C277.13,123.44 276.72,123.65 276.3,123.84 C275.64,124.14 274.96,124.4 274.28,124.65 C273.85,124.81 273.43,124.98 272.99,125.12 C272.3,125.35 271.6,125.53 270.89,125.71 C270.44,125.83 270,125.96 269.54,126.06 C268.85,126.21 268.14,126.3 267.44,126.41 C266.95,126.48 266.48,126.58 265.98,126.63 C265.32,126.7 264.66,126.71 263.99,126.74 C263.46,126.76 262.95,126.82 262.42,126.82 C262.1,126.82 261.8,126.79 261.48,126.78 C260.75,126.76 260.02,126.74 259.3,126.67 C258.78,126.62 258.26,126.54 257.75,126.47 C257.23,126.4 256.71,126.33 256.2,126.23 C255.65,126.13 255.1,126 254.56,125.87 C254.1,125.76 253.64,125.64 253.19,125.52 C252.64,125.36 252.09,125.2 251.55,125.02 C251.12,124.88 250.7,124.72 250.28,124.55 C249.74,124.34 249.2,124.14 248.67,123.9 C248.27,123.72 247.87,123.52 247.48,123.32 C246.96,123.06 246.43,122.82 245.92,122.53 C245.57,122.34 245.24,122.11 244.9,121.91 C243.91,121.31 242.95,120.67 242.02,119.97 C237.91,116.88 234.52,112.9 232.14,108.31 C231.83,109.68 231.48,111.08 231.07,112.48 C228.18,122.25 223.29,131.09 216.85,138.57 C222.99,144.68 230.36,149.56 238.53,152.82 C238.62,152.86 238.72,152.89 238.81,152.93 C241.57,154.02 244.42,154.92 247.34,155.62 C247.69,155.71 248.05,155.79 248.4,155.87 C249.78,156.18 251.17,156.45 252.58,156.67 C252.68,156.69 252.78,156.69 252.88,156.71 C254.21,156.91 255.55,157.05 256.9,157.17 C257.28,157.2 257.66,157.23 258.04,157.26 C259.48,157.36 260.93,157.42 262.4,157.42 C264.03,157.42 265.64,157.34 267.24,157.22 C267.58,157.2 267.91,157.17 268.25,157.14 C269.78,157 271.29,156.81 272.79,156.57 C273.12,156.52 273.46,156.45 273.79,156.39 C275.24,156.13 276.67,155.83 278.09,155.48 C278.22,155.45 278.35,155.42 278.49,155.39 C280.05,154.99 281.58,154.51 283.1,154 C283.33,153.92 283.56,153.85 283.78,153.77 C285.36,153.21 286.92,152.6 288.45,151.92 C288.47,151.91 288.48,151.9 288.5,151.9 C305.72,144.28 319,129.36 324.42,111.08 C324.44,111.03 324.45,110.97 324.47,110.92 C325.02,109.04 325.5,107.12 325.88,105.17 C325.9,105.06 325.92,104.96 325.94,104.85 C326.3,102.94 326.59,101.01 326.78,99.05 C326.79,98.94 326.79,98.83 326.81,98.72 C326.99,96.75 327.100004,94.76 327.100004,92.74 L327.100004,64.78 C327.11,37.58 310.19,14.24 286.32,4.72 Z" id="Path" fill="#FFFFFF"></path>
                            <path d="M127.04,110.95 C127.59,109.07 128.07,107.15 128.45,105.2 C128.47,105.09 128.49,104.99 128.51,104.88 C128.87,102.97 129.16,101.04 129.35,99.08 C129.36,98.97 129.36,98.86 129.38,98.75 C129.56,96.78 129.67,94.79 129.67,92.77 L129.67,64.81 L129.82,64.81 C129.82,56.82 132.66,49.05 137.82,42.91 C142.28,37.61 148.15,33.86 154.63,32.02 C154.74,31.99 154.84,31.96 154.95,31.94 C155.89,31.68 156.84,31.47 157.8,31.3 C158.1,31.25 158.41,31.21 158.71,31.16 C158.93,31.13 159.15,31.09 159.38,31.05 C159.78,31 160.19,30.95 160.59,30.91 C161.11,30.87 161.63,30.85 162.16,30.83 C162.69,30.81 163.2,30.75 163.73,30.75 C164.05,30.75 164.35,30.78 164.67,30.79 C165.4,30.81 166.13,30.83 166.85,30.9 C167.37,30.95 167.89,31.03 168.4,31.1 C168.92,31.17 169.44,31.24 169.95,31.34 C170.5,31.44 171.05,31.57 171.59,31.69 C172.05,31.8 172.51,31.92 172.96,32.04 C173.51,32.2 174.06,32.36 174.6,32.54 C175.03,32.68 175.45,32.84 175.87,33.01 C176.41,33.22 176.95,33.42 177.48,33.66 C177.89,33.84 178.28,34.04 178.68,34.24 C179.2,34.49 179.72,34.74 180.23,35.02 C180.59,35.22 180.93,35.45 181.29,35.66 C182.26,36.25 183.2,36.88 184.11,37.56 C188.23,40.65 191.63,44.64 194.02,49.24 C194.15,48.66 194.29,48.07 194.44,47.48 C194.64,46.68 194.85,45.89 195.09,45.08 C195.45,43.85 195.85,42.63 196.28,41.43 C196.52,40.75 196.79,40.09 197.05,39.42 C197.25,38.91 197.43,38.4 197.64,37.89 C198.01,36.99 198.42,36.11 198.83,35.23 C198.95,34.98 199.05,34.71 199.18,34.46 C199.67,33.43 200.2,32.43 200.74,31.43 C200.79,31.34 200.83,31.24 200.89,31.15 C201.48,30.07 202.1,29.01 202.74,27.96 C202.74,27.95 202.75,27.95 202.75,27.94 C204.7,24.77 206.9,21.78 209.32,18.97 C206.6,16.27 203.64,13.82 200.48,11.63 C200.5,11.61 200.51,11.59 200.53,11.57 C189.7,4.06 177.12,0.11 163.9,0.11 C161.9,0.11 159.92,0.21 157.95,0.39 C157.93,0.39 157.92,0.39 157.9,0.39 C157.75,0.4 157.61,0.42 157.46,0.44 C156.86,0.5 156.25,0.56 155.65,0.63 C154.88,0.73 154.11,0.83 153.35,0.96 C153.02,1.01 152.68,1.08 152.35,1.14 C150.9,1.4 149.46,1.7 148.04,2.05 C147.91,2.08 147.78,2.11 147.65,2.14 C146.09,2.54 144.55,3.02 143.04,3.53 C142.82,3.61 142.59,3.68 142.37,3.76 C140.78,4.32 139.22,4.94 137.7,5.61 C137.69,5.62 137.67,5.62 137.66,5.63 C120.44,13.25 107.15,28.17 101.74,46.45 C101.72,46.5 101.71,46.56 101.69,46.61 C101.14,48.49 100.66,50.41 100.28,52.36 C100.26,52.47 100.24,52.57 100.22,52.68 C99.86,54.59 99.57,56.52 99.38,58.48 C99.37,58.59 99.37,58.7 99.35,58.81 C99.17,60.78 99.06,62.77 99.06,64.79 L99.06,92.75 L99.06,92.76 C99.06,93.84 99,94.9 98.9,95.96 C98.86,96.42 98.78,96.87 98.72,97.33 C98.64,97.91 98.56,98.49 98.46,99.06 C98.35,99.62 98.22,100.18 98.09,100.74 C97.98,101.18 97.87,101.63 97.75,102.06 C97.58,102.66 97.39,103.25 97.19,103.83 C97.06,104.21 96.92,104.59 96.77,104.97 C96.54,105.56 96.3,106.15 96.04,106.74 C95.88,107.1 95.7,107.46 95.52,107.81 C95.24,108.38 94.96,108.94 94.65,109.49 C94.44,109.86 94.22,110.21 93.99,110.57 C93.67,111.09 93.36,111.61 93.01,112.11 C92.75,112.49 92.46,112.85 92.18,113.22 C91.84,113.68 91.5,114.14 91.13,114.58 C91.01,114.72 90.88,114.85 90.76,114.99 C90.1,115.75 89.42,116.49 88.7,117.18 C88.44,117.43 88.16,117.67 87.89,117.91 C87.29,118.46 86.68,118.99 86.05,119.49 C85.71,119.76 85.37,120.01 85.02,120.26 C84.42,120.7 83.81,121.12 83.18,121.51 C82.8,121.75 82.41,121.99 82.02,122.22 C81.39,122.58 80.76,122.92 80.11,123.24 C79.7,123.44 79.29,123.65 78.87,123.84 C78.21,124.14 77.53,124.4 76.85,124.65 C76.42,124.81 76,124.98 75.56,125.12 C74.87,125.35 74.17,125.53 73.46,125.71 C73.01,125.83 72.57,125.96 72.11,126.06 C71.42,126.21 70.71,126.3 70.01,126.41 C69.52,126.48 69.05,126.58 68.55,126.63 C67.89,126.7 67.23,126.71 66.56,126.74 C66.03,126.76 65.52,126.82 64.99,126.82 C64.67,126.82 64.37,126.79 64.05,126.78 C63.49,126.76 62.94,126.74 62.39,126.7 C62.19,126.68 61.98,126.67 61.78,126.65 C61.29,126.6 60.81,126.53 60.32,126.46 C59.96,126.41 59.6,126.35 59.24,126.29 C58.98,126.24 58.72,126.2 58.46,126.15 C58.24,126.11 58.02,126.06 57.8,126.01 C57.45,125.93 57.11,125.86 56.76,125.77 C56.67,125.75 56.58,125.72 56.49,125.7 C41.88,121.87 31.06,108.55 31.06,92.74 L31.06,64.8 C31.06,63.6 31.13,62.36 31.28,61.02 L31.42,59.31 L31.42,59.27 L31.42,59.24 L31.41,59.24 L31.57,56.9 C31.91,53.83 32.81,49.23 35.28,43.93 C36.66,40.98 38.42,38.18 40.52,35.64 C42.6,33.12 44.85,30.99 47.41,29.12 C47.71,28.9 47.98,28.68 48.24,28.46 L48.41,28.31 C49.48,27.38 49.91,26.73 50.07,26.42 L50.17,26.24 C50.24,26.13 50.31,26.01 50.39,25.91 C50.7,25.33 50.9,24.78 50.94,24.35 L50.9,24 C50.81,22.31 50.25,20.51 49.23,18.63 L49.13,18.44 C47.17,14.91 44.03,11.89 41.72,9.97 L41.04,9.41 L41.03,9.42 L40.82,9.25 L40.78,9.22 C40.46,8.99 40.16,8.79 39.86,8.62 C35.5,5.97 31.44,5.96 27.03,8.54 C24.86,9.81 22.65,11.7 20.44,14.15 C12.7,21.99 3.15,35.68 0.89,57.13 L0.82,57.78 L0.78,58.13 C0.55,60.39 0.43,62.63 0.43,64.81 L0.43,67.79 L0.29,67.79 L0.29,92.78 C0.29,120.01 17.21,143.34 41.07,152.87 C41.16,152.91 41.26,152.94 41.35,152.98 C44.11,154.07 46.96,154.97 49.88,155.67 C50.23,155.76 50.59,155.84 50.94,155.92 C52.32,156.23 53.71,156.5 55.12,156.72 C55.22,156.74 55.32,156.74 55.42,156.76 C56.26,156.89 57.12,156.98 57.97,157.07 C58.37,157.11 58.78,157.15 59.18,157.19 C59.26,157.2 59.35,157.21 59.43,157.21 C59.81,157.24 60.19,157.27 60.57,157.3 C60.65,157.31 60.73,157.31 60.81,157.31 C61.36,157.35 61.9,157.38 62.46,157.4 C63.15,157.43 63.84,157.45 64.53,157.45 C64.7,157.44 64.84,157.44 64.97,157.45 C66.6,157.45 68.21,157.37 69.81,157.25 C70.15,157.23 70.48,157.2 70.82,157.17 C72.35,157.03 73.86,156.84 75.36,156.6 C75.7,156.55 76.03,156.48 76.36,156.42 C77.81,156.16 79.24,155.86 80.66,155.51 C80.79,155.48 80.92,155.45 81.06,155.42 C82.62,155.02 84.15,154.54 85.67,154.03 C85.9,153.95 86.13,153.88 86.35,153.8 C87.93,153.24 89.49,152.63 91.02,151.95 C91.04,151.94 91.05,151.93 91.07,151.93 C108.29,144.31 121.57,129.39 126.99,111.11 C127.01,111.06 127.02,111 127.04,110.95 Z" id="Path" fill="#FFFFFF"></path>
                        </g>
                    </g>
                </g>
                <path d="M14.457234,275 C16.4517021,275 18.3546809,274.85 20.1661702,274.55 C21.9776596,274.25 23.5695745,273.713636 24.9419149,272.940909 C26.3142553,272.168182 27.4029787,271.109091 28.2080851,269.763636 C29.0131915,268.418182 29.4157447,266.7 29.4157447,264.609091 C29.4157447,263.245455 29.1915957,262.009091 28.7432979,260.9 C28.295,259.790909 27.6682979,258.831818 26.8631915,258.022727 C26.0580851,257.213636 25.0974468,256.572727 23.9812766,256.1 C22.8651064,255.627273 21.6391489,255.336364 20.3034043,255.227273 L20.3034043,255.227273 L20.3034043,255.118182 C22.7919149,254.481818 24.7589362,253.445455 26.2044681,252.009091 C27.6682979,250.554545 28.4002128,248.5 28.4002128,245.845455 C28.4002128,244.063636 28.0662766,242.545455 27.3984043,241.290909 C26.7305319,240.036364 25.7881915,239.018182 24.571383,238.236364 C23.3545745,237.454545 21.8998936,236.886364 20.2073404,236.531818 C18.5147872,236.177273 16.6529787,236 14.6219149,236 L14.6219149,236 L4,236 L4,275 L14.457234,275 Z M12.7006383,252.663636 L9.62659574,252.663636 L9.62659574,240.581818 L15.5276596,240.581818 C16.332766,240.581818 17.1653191,240.668182 18.0253191,240.840909 C18.8853191,241.013636 19.6675532,241.322727 20.3720213,241.768182 C21.0764894,242.213636 21.6528723,242.809091 22.1011702,243.554545 C22.5494681,244.3 22.773617,245.245455 22.773617,246.390909 C22.773617,247.827273 22.5037234,248.963636 21.9639362,249.8 C21.4241489,250.636364 20.692234,251.263636 19.7681915,251.681818 C18.8441489,252.1 17.7737234,252.368182 16.5569149,252.486364 C15.3401064,252.604545 14.0546809,252.663636 12.7006383,252.663636 L12.7006383,252.663636 Z M13.8259574,270.418182 L9.62659574,270.418182 L9.62659574,257.245455 L13.2770213,257.245455 C14.4846809,257.245455 15.6923404,257.318182 16.9,257.463636 C18.1076596,257.609091 19.2009574,257.922727 20.1798936,258.404545 C21.1588298,258.886364 21.9502128,259.581818 22.5540426,260.490909 C23.1578723,261.4 23.4597872,262.609091 23.4597872,264.118182 C23.4597872,265.409091 23.1990426,266.463636 22.6775532,267.281818 C22.1560638,268.1 21.4515957,268.740909 20.5641489,269.204545 C19.6767021,269.668182 18.6520213,269.986364 17.4901064,270.159091 C16.3281915,270.331818 15.1068085,270.418182 13.8259574,270.418182 L13.8259574,270.418182 Z M60.9246809,275 L60.9246809,270.090909 L44.566383,270.090909 L44.566383,257.245455 L59.47,257.245455 L59.47,252.336364 L44.566383,252.336364 L44.566383,240.936364 L60.9246809,240.936364 L60.9246809,236 L38.967234,236 L38.967234,275 L60.9246809,275 Z M83.3761702,275 L83.3761702,240.936364 L95.5625532,240.936364 L95.5625532,236 L65.5631915,236 L65.5631915,240.936364 L77.7495745,240.936364 L77.7495745,275 L83.3761702,275 Z M99.6795745,275 L103.659362,265.181818 L122.872128,265.181818 L126.879362,275 L133,275 L116.422128,236 L110.521064,236 L93.7785106,275 L99.6795745,275 Z M121.088085,260.6 L105.470851,260.6 L113.265745,241.263636 L121.088085,260.6 Z" id="BETA" fill="#FFFFFF" fill-rule="nonzero"></path>
            </g>
        </svg>